<?xml version="1.0" encoding="UTF-8"?>
<svg id="Camada_2" xmlns="http://www.w3.org/2000/svg" version="1.1" xmlns:xlink="http://www.w3.org/1999/xlink" viewBox="0 0 1514.3 1405.3">
  <!-- Generator: Adobe Illustrator 29.3.1, SVG Export Plug-In . SVG Version: 2.1.0 Build 151)  -->
  <defs>
    <style>
      .st0 {
        fill: #fff;
      }

      .st1 {
        fill: none;
      }

      .st2 {
        filter: url(#drop-shadow-1);
      }
    </style>
    <filter id="drop-shadow-1" x="40" y="7.3" width="1434" height="1393" filterUnits="userSpaceOnUse">
      <feOffset dx="0" dy="0"/>
      <feGaussianBlur result="blur" stdDeviation="10"/>
      <feFlood flood-color="#000" flood-opacity=".8"/>
      <feComposite in2="blur" operator="in"/>
      <feComposite in="SourceGraphic"/>
    </filter>
  </defs>
  <g id="Camada_1-2" class="st2">
    <g>
      <path class="st0" d="M1169.3,706.2c0,227.4-184.4,411.8-411.8,411.8s-411.8-184.4-411.8-411.8,184.4-411.8,411.8-411.8,411.8,184.4,411.8,411.8h0ZM1130.4,706.6c0-205.8-166.8-372.6-372.6-372.6s-372.6,166.8-372.6,372.6,166.8,372.6,372.6,372.6,372.6-166.8,372.6-372.6Z"/>
      <path class="st0" d="M364.3,469.5c-9.2,8.7-18.7,6.2-28.6,1-51.8-27.1-103.9-76.1-155.9-105.1-19.5-15.5-3.1-46.5,21.2-37.1,48.5,35.6,102.8,66.4,150.6,102.4,12.6,9.5,29.8,22.7,12.6,38.8h.1Z"/>
      <path class="st0" d="M1319,327.1c21.5-4.2,37,23.8,17.4,37.4l-161,108c-20.2,12-39.9-15.4-24.3-32.2,50.2-33.1,98.4-69.8,149-102.1,5-3.2,13.5-10,18.9-11.1h0Z"/>
      <path class="st0" d="M1412.8,634.2c3.8-.2,7.2-1.1,11.4-.7,25.1,2.5,28.2,38.6-2.5,43.4-59,9.2-123.3,9.3-182.9,16.5-24.2-1.8-27.7-32.6-5.5-41.5,59.3-3,120.5-15.2,179.5-17.8h0Z"/>
      <path class="st0" d="M89.5,632l190.3,18c24.8,8.2,21.5,38-3.8,42.8l-186.6-17.8c-25.7-4.3-25-38.1,0-43h.1Z"/>
      <path class="st0" d="M434.2,113.8c11.9-1.6,18.5,6.3,24,15,29.9,47,51,106.3,81.2,154,15.5,25.6-16.8,49.7-35.8,23.8-25-53.5-61.3-106.5-85.2-159.9-6.5-14.6-1.2-30.6,15.8-32.9h0Z"/>
      <path class="st0" d="M1193.4,879.1c9.2-2.1,15.7,2,23.8,5.2,54.5,21.7,107.1,49.5,161.5,71.7,18.2,15.8,7.6,43.5-17.9,37.8l-170.6-74.5c-18.5-6.5-14.4-36.2,3.2-40.2Z"/>
      <path class="st0" d="M1054,1062.5c5.8-.5,13.6,3.4,17.5,7.5l117.3,145.7c11.7,20.5-14.7,42.9-32.8,26.8-34.4-48.5-81.5-93.6-115.2-141.9-10.8-15.6-7.7-36.2,13.1-38.1h0Z"/>
      <path class="st0" d="M330.5,914.1l-178.8,79.4c-24.4,3.9-34.8-25.8-15.4-39.5l170.3-74.8c22.6-5.6,36.1,15.7,23.9,34.9h0Z"/>
      <path class="st0" d="M1073.9,113.9c19.1-2.8,27.5,14.5,21.3,31.5-18.9,51.9-63.7,109.5-85,162.1-13.3,22.1-45.2,7.9-38.6-16.7,29.9-50.1,52.2-109.5,82.4-158.7,4.7-7.7,9.9-16.8,19.8-18.2h0Z"/>
      <path class="st0" d="M457.9,1062.7c12.7-.7,24.3,11.4,22.6,24.1-.6,4.3-3.4,7.1-5.5,10.6-28.6,47.3-82.7,93.9-114,141.1-20.7,21.7-49.4-1-31.6-27.6,31.2-46.6,78.4-89.7,110.3-136.8,4.4-5.1,11.2-10.9,18.2-11.3h0Z"/>
      <path class="st0" d="M753.1,38.1c12.9-2.4,23.3,5.6,24.5,18.5,5.4,59.4-4.2,127-.2,187.3-7.8,24.9-41.5,17.1-41.8-7.8,4.7-55.7-6-120.9,0-175.5,1.2-10.4,6.3-20.4,17.5-22.5h0Z"/>
      <path class="st0" d="M675.3,1156.2c7.5-1.2,16.7,1.4,21.4,7.6,6.6,8.7,3.7,18.5,2.7,28.6-5.2,53.2-18.1,107.3-22.5,160.9-5.7,23.3-44.1,22.1-43-7,1.9-54.8,21.4-117.3,24.5-173,1.4-8.5,8.4-15.6,16.9-17h0Z"/>
      <path class="st0" d="M830.8,1156.1c20.2-2.9,23.5,13.9,26.1,28.8,9.5,53.2,13.2,107.8,22.3,161.1,2.8,25.2-30,32.8-41.1,11.1l-24.9-182.4c.4-8.6,9-17.3,17.5-18.5h.1Z"/>
      <path class="st0" d="M1085.7,346c18.8-22.1,39.6-42.2,58.5-64,18.8-10.4,38,4.5,26.8,24.8l-67.7,69.9c-16,10.6-31.7-4.5-26-22,1.8-5.8,6-5.7,8.4-8.6h0Z"/>
      <path class="st0" d="M436.1,374c-5.6,6.8-15.7,7.7-23.2,3.4-8-4.6-39.7-38.6-48-47.6-3.8-4.2-22-23.9-23-26.8-5.4-16.9,9.2-29.7,25-23,3.1,1.3,29,28.8,34,33.8,7.4,7.5,31.4,31.4,35.5,38.2,4,6.8,5.1,15.7-.3,22.1h0Z"/>
      <path class="st0" d="M188.2,539.3c-10.6-11.5-1.4-32.2,15-30l97.4,34.1c13.7,8.7,6.9,34-11.9,32-29.1-11.6-62.2-18.7-90.8-31-2.9-1.2-7.8-3-9.8-5.2h.1,0Z"/>
      <path class="st0" d="M1307.1,510.5c21.9-3.6,30.6,17.3,15.2,31.1l-93.9,33.8c-19.2,3-28.6-18.6-15.2-31.2l93.9-33.7h0Z"/>
      <path class="st0" d="M280.8,804.5c-1.9,1.7-8.1,3.2-11,4-19.9,5.2-70,16-89.1,16.6-24.5.8-28.6-26.4-7.9-33.9,12.7-4.6,82.4-17.8,95.7-18.1,17.7-.4,22,22.4,12.3,31.4h0Z"/>
      <path class="st0" d="M1241.4,773.5l101.6,19c14.3,10.8,9.9,32-8.4,34.4l-98.7-20.9c-14.6-7-10.6-30.3,5.6-32.5h0Z"/>
      <path class="st0" d="M1132.8,994.9c4.8-5.2,14.4-6.2,20.7-3l75.3,58.2c12.1,11.1,2.5,33.6-13.5,31.5-5.6-.8-20.7-13.5-26.3-17.6-10.4-7.8-52.7-39.8-57.8-47.8-4.3-6.8-4-15.2,1.5-21.2h.1Z"/>
      <path class="st0" d="M380.3,1019.6l-78.3,60.2c-19,8-31.7-19.2-14.8-30.8l73.9-57.6c19.6-6.8,30.8,12.6,19.2,28.2h0Z"/>
      <path class="st0" d="M941.5,1136.4c6.2-5.7,15.6-5.6,22.3-.7,12.7,9.2,29.7,76.6,40.4,93.2,3.6,18.3-22.2,25.5-31.9,11.9l-35-86.6c-1.7-5.8-.3-13.7,4.1-17.8h.1Z"/>
      <path class="st0" d="M573.6,1136.4c4.8,4,5.2,12.1,4.1,17.9-2.6,14-23.9,63.9-31.1,78.5-3.8,7.8-5.8,15-15.8,16.2-10.2,1.3-20-7.6-20-18.1l40.4-95.2c5.8-4.9,16.8-4.1,22.4.6h0Z"/>
      <path class="st0" d="M617.4,150c7.7,0,13.3,3.9,16.2,10.7,10,24,10.1,62.1,19.7,87.6.7,20-25.9,25.8-34.2,6.7-4.4-10.1-18.2-75.3-18.8-87-.6-10,7.1-17.8,17.2-18h-.1Z"/>
      <path class="st0" d="M890.5,262.3c-6.5,6.1-17,5.1-24,.3-6.7-4.5-5.8-9.1-5.2-16.6.8-11.1,16.5-77.7,20.9-86.8,7.8-16.1,32.5-10.5,32.3,8.7-7.2,16.2-14.3,85.4-23.9,94.4h0Z"/>
      <path class="st0" d="M988.6,779.3c-21.7-4-19.3-34.7,2.9-32,5.7.7,41.4,17.8,46,21.9,5.9,5.1,6.5,10.7,4.1,18.1-4,12.1-20.4,6-22.8,8.1-1.1,1-8.2,23.6-10.5,28.4-28.7,61.4-75.5,111.5-137.9,139.1-153.1,67.9-321.2-13.6-375-167.8l-2-1.7c-12.8,8.4-28.1-4.9-20.7-18.9,3.9-7.4,44-26.5,52.8-27.1,14.1-1,21.3,15.9,11.9,26-2.9,3.1-10.2,4.4-10.7,6.7-.3,1.7,7.6,22.7,9.2,26.4,25.7,60.5,85.2,115.2,147.9,135.1,130.1,41.1,267.7-31.9,304.7-162.2h0Z"/>
      <path class="st0" d="M623.5,508.5c30.1-6.3,44.7,23.5,50.6,48.1,8.2,34.2,8.8,121.6-31.6,136.3-42.8,15.6-57.6-56.7-58.4-86.2-.7-25,9.3-92,39.4-98.3h0Z"/>
      <path class="st0" d="M874.6,508.5c17.7-3.7,28.1,3.7,37.2,17.6,23.1,35.2,23.5,98.8,7.5,136.7-14,33.3-44.7,48.3-66.5,11.9-21.6-36.1-22.7-102.9-4-140.2,4.7-9.3,15-23.9,25.7-26.1h0Z"/>
    </g>
  </g>
  <rect class="st1" x="-126.3" y="-179.7" width="1766.9" height="1766.9"/>
</svg>