<?xml version="1.0" encoding="UTF-8"?>
<svg id="Camada_2" xmlns="http://www.w3.org/2000/svg" version="1.1" viewBox="0 0 1612.22 287.19">
  <!-- Generator: Adobe Illustrator 29.5.0, SVG Export Plug-In . SVG Version: 2.1.0 Build 137)  -->
  <defs>
    <style>
      .st0 {
        fill: #ffb000;
      }
    </style>
  </defs>
  <g id="Camada_2-2">
    <g>
      <path class="st0" d="M322.89,167.57V25.02c0-7.97,1.81-13.71,5.42-17.23,3.61-3.52,9.68-5.28,18.2-5.28h4.44c8.51,0,14.59,1.76,18.2,5.28,3.61,3.53,5.42,9.26,5.42,17.23v142.55c0,7.78-1.81,13.38-5.42,16.82-3.61,3.43-9.68,5.14-18.2,5.14h-4.44c-8.71,0-14.82-1.67-18.34-5-3.53-3.34-5.28-8.98-5.28-16.95h0Z"/>
      <path class="st0" d="M410.7,167.57c0-15.74.09-39.36.28-70.86.18-31.5.28-55.12.28-70.86,0-8.15,1.9-14.07,5.7-17.79,3.8-3.7,9.95-5.56,18.48-5.56h12.23c6.11,0,11.34,1.02,15.7,3.06,4.35,2.04,7.96,5.33,10.84,9.86,2.87,4.54,5,8.47,6.39,11.81s3.19,8.34,5.42,15c13.34,40.76,21.95,66.41,25.84,76.97,1.67-4.44,10.18-30.1,25.56-76.97,2.22-6.85,4.03-11.9,5.42-15.15,1.39-3.24,3.57-7.18,6.53-11.81s6.62-7.92,10.98-9.86c4.35-1.95,9.59-2.92,15.7-2.92h12.51c9.26,0,15.65,2.22,19.17,6.67,3.52,4.44,5.28,11.49,5.28,21.12,0,15.38.04,38.26.14,68.64.09,30.38.14,53.26.14,68.64,0,7.97-1.76,13.61-5.28,16.95-3.53,3.34-9.64,5-18.34,5h-1.67c-8.16,0-14.08-1.76-17.79-5.28-3.7-3.52-5.56-9.08-5.56-16.67,0-33.16.09-60.48.28-81.97-1.67,5.37-8.24,25.19-19.73,59.47-2.96,8.34-7.18,14.87-12.64,19.59-5.47,4.73-11.53,7.08-18.2,7.08h-5.56c-6.85,0-13.11-2.41-18.76-7.23-5.65-4.82-9.77-11.39-12.36-19.73-1.67-5.56-4.63-14.87-8.89-27.93-4.27-13.06-7.5-23.48-9.72-31.26,0,10.75.04,24.41.14,40.99.09,16.58.14,30.24.14,40.99,0,7.78-1.81,13.38-5.42,16.82s-9.59,5.14-17.92,5.14h-1.94c-8.52,0-14.54-1.71-18.06-5.14-3.53-3.42-5.28-9.03-5.28-16.82h-.03Z"/>
      <path class="st0" d="M641.61,173.68c0-4.07.83-9.26,2.5-15.56,10.75-42.42,23.62-84.47,38.62-126.16,7.23-19.82,21.12-29.73,41.68-29.73h6.11c10.75,0,19.59,2.69,26.54,8.05,6.95,5.37,11.99,12.6,15.15,21.68,17.41,51.32,30.29,93.37,38.62,126.16,1.67,7.23,2.5,11.86,2.5,13.9,0,11.67-7.78,17.51-23.34,17.51h-7.23c-4.63,0-8.57-.7-11.81-2.09s-5.83-2.92-7.78-4.58c-1.94-1.67-3.7-4.59-5.28-8.75-1.58-4.17-2.69-7.69-3.34-10.56s-1.63-7.54-2.92-14.03c-.37-1.85-.65-3.24-.83-4.17h-46.69c-2.04,9.64-3.57,16.49-4.59,20.56-1.02,4.08-2.73,8.34-5.14,12.78s-5.33,7.37-8.75,8.75c-3.43,1.39-7.92,2.09-13.48,2.09h-7.23c-15.56,0-23.34-5.28-23.34-15.84h.03ZM710.25,106.99h34.46c-4.82-22.97-10.56-42.51-17.23-58.63-5.75,12.41-11.49,31.96-17.23,58.63h0Z"/>
      <path class="st0" d="M823.07,96.15c0-16.85,2.73-31.67,8.2-44.46,5.47-12.78,12.74-22.83,21.81-30.15,9.08-7.31,18.85-12.74,29.32-16.25S903.75.01,915.05.01c20.19,0,36.44,3.75,48.76,11.26,12.32,7.5,18.48,17.46,18.48,29.87,0,5.93-2.13,11.11-6.39,15.56-4.27,4.44-10.1,7.14-17.51,8.05-4.44-5.19-9.54-9.12-15.28-11.81-5.75-2.68-14.17-4.03-25.29-4.03-12.41,0-22.46,4.21-30.15,12.64-7.69,8.43-11.53,20.15-11.53,35.15s3.84,27.32,11.53,35.29c7.69,7.97,17.92,11.95,30.7,11.95,10,0,17.83-2.5,23.48-7.5,5.65-5,8.47-10.65,8.47-16.95,0-1.85-1.12-2.78-3.34-2.78h-15.84c-5.19,0-9.31-1.58-12.36-4.73-3.06-3.15-4.58-7.41-4.58-12.78s1.48-9.54,4.44-12.51c2.96-2.96,7.13-4.44,12.51-4.44h45.3c5.56,0,10.42,1.9,14.59,5.7,4.17,3.8,6.25,8.57,6.25,14.31v12.51c0,9.26-1.67,18.3-5,27.09-3.34,8.8-8.16,17-14.45,24.59-6.3,7.6-14.87,13.75-25.71,18.48s-23.11,7.08-36.82,7.08c-11.67,0-22.79-1.81-33.34-5.42-10.56-3.61-20.33-9.03-29.32-16.25-8.99-7.23-16.16-17.23-21.53-30.01-5.37-12.78-8.05-27.51-8.05-44.18h0Z"/>
      <path class="st0" d="M1023.13,167.57V25.02c0-7.96,1.81-13.71,5.42-17.23,3.61-3.52,9.68-5.28,18.2-5.28h4.44c8.51,0,14.59,1.76,18.2,5.28,3.61,3.53,5.42,9.26,5.42,17.23v142.55c0,7.78-1.81,13.38-5.42,16.82-3.61,3.43-9.68,5.14-18.2,5.14h-4.44c-8.71,0-14.82-1.67-18.34-5-3.53-3.34-5.28-8.98-5.28-16.95h0Z"/>
      <path class="st0" d="M1110.95,167.57V25.02c0-7.96,1.81-13.71,5.42-17.23,3.61-3.52,9.68-5.28,18.2-5.28h4.44c8.51,0,14.59,1.76,18.2,5.28,3.61,3.53,5.42,9.26,5.42,17.23v117.26h60.02c6.67,0,11.9,1.99,15.7,5.98,3.8,3.98,5.7,9.87,5.7,17.64s-1.9,13.67-5.7,17.64c-3.8,3.98-9.03,5.98-15.7,5.98h-88.08c-8.71,0-14.82-1.67-18.34-5-3.53-3.34-5.28-8.98-5.28-16.95h0Z"/>
      <path class="st0" d="M1258.22,102.26V25.29c0-15.19,7.96-22.79,23.9-22.79h3.89c8.51,0,14.63,1.76,18.34,5.28,3.7,3.53,5.56,9.36,5.56,17.51v88.37c0,22.61,10.18,33.91,30.57,33.91s30.57-11.3,30.57-33.91V25.29c0-8.15,1.81-13.98,5.42-17.51,3.61-3.52,9.68-5.28,18.2-5.28h3.89c16.12,0,24.17,7.6,24.17,22.79v76.97c0,8.89-.47,16.91-1.39,24.04-.93,7.14-3.06,14.96-6.39,23.48-3.34,8.52-7.82,15.61-13.48,21.26s-13.67,10.42-24.04,14.31c-10.38,3.89-22.69,5.83-36.96,5.83s-26.58-1.94-36.95-5.83c-10.38-3.89-18.39-8.66-24.04-14.31-5.65-5.65-10.14-12.74-13.48-21.26-3.34-8.51-5.47-16.35-6.39-23.48-.93-7.13-1.39-15.15-1.39-24.04h0Z"/>
      <path class="st0" d="M1452.18,163.95c0-8.15,5.56-18.8,16.67-31.96l68.96-79.43.23-3.38h-63.91c-14.27,0-21.4-7.78-21.4-23.34,0-7.78,1.9-13.61,5.7-17.51,3.8-3.89,9.03-5.83,15.7-5.83h101.15c21.68,0,32.51,10,32.51,30.01,0,1.29-.14,2.72-.43,4.28-.28,1.57-.66,2.95-1.13,4.15s-1.13,2.62-1.98,4.28-1.56,2.95-2.12,3.87-1.46,2.26-2.68,4.01c-1.23,1.75-2.1,2.94-2.66,3.57s-1.59,1.87-3.15,3.73-2.54,2.95-2.95,3.31c-2.67,3.08-9.3,10.7-19.87,22.89-10.58,12.18-19.44,22.39-26.61,30.65s-13.73,15.81-19.69,22.67l.17,3.2h61.41c8.7,0,15.23,1.76,19.59,5.28,4.35,3.53,6.53,9.54,6.53,18.06,0,7.78-1.94,13.57-5.83,17.37s-9.08,5.7-15.56,5.7h-106.15c-11.86,0-20.24-1.99-25.15-5.98-4.91-3.98-7.37-10.52-7.37-19.59l.03-.02h0Z"/>
      <path class="st0" d="M416.17,269.95v-43.14c0-2.41.55-4.15,1.64-5.21,1.09-1.06,2.93-1.6,5.51-1.6h1.35c2.58,0,4.42.53,5.51,1.6,1.09,1.07,1.64,2.8,1.64,5.21v14.55h19.17v-14.55c0-2.41.55-4.15,1.64-5.21,1.09-1.06,2.9-1.6,5.42-1.6h1.43c2.52,0,4.33.53,5.42,1.6s1.64,2.8,1.64,5.21v43.14c0,2.35-.55,4.05-1.64,5.09s-2.9,1.56-5.42,1.56h-1.43c-2.58,0-4.4-.52-5.47-1.56s-1.6-2.73-1.6-5.09v-15.47h-19.17v15.47c0,2.35-.55,4.05-1.64,5.09s-2.93,1.56-5.51,1.56h-1.35c-2.64,0-4.49-.5-5.55-1.51-1.07-1.01-1.6-2.72-1.6-5.13h.01Z"/>
      <path class="st0" d="M477.56,269.95v-43.14c0-2.41.55-4.15,1.64-5.21,1.09-1.06,2.93-1.6,5.51-1.6h1.35c2.58,0,4.42.53,5.51,1.6s1.64,2.8,1.64,5.21v43.14c0,2.35-.55,4.05-1.64,5.09s-2.93,1.56-5.51,1.56h-1.35c-2.64,0-4.49-.5-5.55-1.51-1.07-1.01-1.6-2.72-1.6-5.13h0Z"/>
      <path class="st0" d="M501.28,267.18c0-3.7,1.65-6.31,4.96-7.82,1.12,1.18,3.31,2.38,6.56,3.62,3.25,1.23,6.59,1.85,10.01,1.85,2.13,0,3.84-.42,5.13-1.26,1.29-.84,1.93-1.93,1.93-3.28,0-1.23-.65-2.23-1.93-2.99-1.29-.76-3.5-1.44-6.64-2.06-6.39-1.29-11.17-3.33-14.34-6.14-3.17-2.8-4.75-6.7-4.75-11.69,0-5.44,2.03-9.83,6.1-13.16,4.06-3.34,9.35-5,15.85-5,5.94,0,10.72.9,14.34,2.69,3.62,1.79,5.42,4.37,5.42,7.74,0,1.46-.41,2.85-1.22,4.16-.81,1.32-1.95,2.31-3.41,2.99-4.32-2.75-9.06-4.12-14.21-4.12-2.19,0-3.86.41-5,1.22-1.15.81-1.72,1.87-1.72,3.15,0,1.12.52,2,1.56,2.65s2.62,1.22,4.75,1.72c8.07,1.91,13.68,4.19,16.82,6.85,3.14,2.66,4.71,6.29,4.71,10.89,0,5.21-2.17,9.54-6.52,12.99-4.35,3.45-10.08,5.17-17.2,5.17-5.94,0-10.96-.94-15.05-2.82s-6.14-4.33-6.14-7.36h-.01Z"/>
      <path class="st0" d="M567.04,234.04h-9.76c-2.02,0-3.6-.59-4.75-1.77-1.15-1.18-1.72-2.94-1.72-5.3,0-4.65,2.16-6.98,6.48-6.98h35.15c4.32,0,6.48,2.33,6.48,6.98,0,2.36-.58,4.12-1.72,5.3-1.15,1.18-2.73,1.77-4.75,1.77h-9.76v35.91c0,2.35-.55,4.05-1.64,5.09-1.09,1.04-2.93,1.56-5.51,1.56h-1.43c-2.58,0-4.4-.52-5.47-1.56s-1.6-2.73-1.6-5.09v-35.91h0Z"/>
      <path class="st0" d="M604.63,261.96c-1.68-3.87-2.52-8.38-2.52-13.54s.84-9.7,2.52-13.62,3.91-6.98,6.69-9.17,5.73-3.8,8.87-4.83c3.14-1.04,6.42-1.56,9.84-1.56s6.7.52,9.84,1.56c3.14,1.04,6.1,2.65,8.87,4.83,2.78,2.19,5,5.24,6.69,9.17,1.68,3.93,2.52,8.47,2.52,13.62s-.84,9.67-2.52,13.54-3.91,6.88-6.69,9.04-5.73,3.76-8.87,4.79c-3.14,1.04-6.39,1.56-9.76,1.56s-6.7-.52-9.84-1.56c-3.14-1.04-6.11-2.63-8.91-4.79-2.8-2.16-5.05-5.17-6.73-9.04h0ZM621.58,259.31c2.33,2.38,5.14,3.57,8.45,3.57s6.12-1.19,8.45-3.57c2.33-2.38,3.49-6.04,3.49-10.98s-1.16-8.58-3.49-10.93-5.14-3.53-8.45-3.53-6.13,1.19-8.45,3.57c-2.33,2.38-3.49,6.01-3.49,10.89s1.16,8.59,3.49,10.98ZM621.45,217.73c-.79,0-1.46-.26-2.02-.8-.56-.53-.84-1.3-.84-2.31v-.76c0-1.79.95-3.17,2.86-4.12l13.29-6.81c1.57-.73,2.89-1.09,3.95-1.09,1.96,0,2.94,1.4,2.94,4.21,0,4.09-.98,6.45-2.94,7.06l-13.71,4.12c-1.18.34-2.35.5-3.53.5h0Z"/>
      <path class="st0" d="M666.36,270.12v-43.31c0-2.41.55-4.15,1.64-5.21,1.09-1.06,2.9-1.6,5.42-1.6h16.99c6.61,0,11.87,1.61,15.77,4.83s5.85,7.75,5.85,13.58c0,4.37-1.14,7.79-3.41,10.26s-4.92,4.12-7.95,4.96c1.68,2.92,3.84,5.76,6.48,8.54,2.63,2.78,5.24,4.72,7.82,5.84-.22,2.3-1.12,4.4-2.69,6.31s-3.76,2.86-6.56,2.86c-1.46,0-2.85-.25-4.16-.76-1.32-.5-2.54-1.26-3.66-2.27-1.12-1.01-2.12-2.02-2.99-3.03s-1.77-2.31-2.69-3.91-1.64-2.9-2.14-3.91-1.15-2.35-1.93-4.04c-.79-1.68-1.32-2.8-1.6-3.36h-4.63v14.04c0,2.41-.55,4.12-1.64,5.13-1.09,1.01-2.93,1.51-5.51,1.51h-1.18c-3.08,0-5.06-.45-5.93-1.35s-1.3-2.61-1.3-5.13v.02ZM681.92,245.31h7.4c2.13,0,3.9-.53,5.3-1.6,1.4-1.06,2.1-2.55,2.1-4.46,0-2.02-.67-3.53-2.02-4.54-1.35-1.01-3.14-1.51-5.38-1.51h-7.4v12.11Z"/>
      <path class="st0" d="M722.46,269.95v-43.14c0-2.41.55-4.15,1.64-5.21,1.09-1.06,2.93-1.6,5.51-1.6h1.35c2.58,0,4.42.53,5.51,1.6s1.64,2.8,1.64,5.21v43.14c0,2.35-.55,4.05-1.64,5.09-1.09,1.04-2.93,1.56-5.51,1.56h-1.35c-2.64,0-4.49-.5-5.55-1.51-1.07-1.01-1.6-2.72-1.6-5.13h0Z"/>
      <path class="st0" d="M746.68,271.8c0-1.23.25-2.8.76-4.71,3.25-12.84,7.15-25.57,11.69-38.18,2.19-6,6.39-9,12.61-9h1.85c3.25,0,5.93.81,8.03,2.44s3.63,3.81,4.58,6.56c5.27,15.53,9.17,28.26,11.69,38.18.5,2.19.76,3.59.76,4.21,0,3.53-2.35,5.3-7.06,5.3h-2.19c-1.4,0-2.59-.21-3.57-.63s-1.77-.88-2.35-1.39-1.12-1.39-1.6-2.65c-.48-1.26-.81-2.33-1.01-3.2-.2-.87-.49-2.28-.88-4.25-.11-.56-.2-.98-.25-1.26h-14.13c-.62,2.92-1.08,4.99-1.39,6.22-.31,1.23-.83,2.52-1.56,3.87s-1.61,2.23-2.65,2.65c-1.04.42-2.4.63-4.08.63h-2.19c-4.71,0-7.06-1.6-7.06-4.79h0ZM767.45,251.62h10.43c-1.46-6.95-3.2-12.87-5.21-17.75-1.74,3.76-3.48,9.67-5.21,17.75h-.01Z"/>
      <path class="st0" d="M804.37,267.18c0-3.7,1.65-6.31,4.96-7.82,1.12,1.18,3.31,2.38,6.56,3.62,3.25,1.23,6.59,1.85,10.01,1.85,2.13,0,3.84-.42,5.13-1.26s1.93-1.93,1.93-3.28c0-1.23-.65-2.23-1.93-2.99-1.29-.76-3.5-1.44-6.64-2.06-6.39-1.29-11.17-3.33-14.34-6.14-3.17-2.8-4.75-6.7-4.75-11.69,0-5.44,2.03-9.83,6.1-13.16,4.06-3.34,9.35-5,15.85-5,5.94,0,10.72.9,14.34,2.69,3.62,1.79,5.42,4.37,5.42,7.74,0,1.46-.41,2.85-1.22,4.16-.81,1.32-1.95,2.31-3.41,2.99-4.32-2.75-9.06-4.12-14.21-4.12-2.19,0-3.86.41-5,1.22-1.15.81-1.72,1.87-1.72,3.15,0,1.12.52,2,1.56,2.65s2.62,1.22,4.75,1.72c8.07,1.91,13.68,4.19,16.82,6.85s4.71,6.29,4.71,10.89c0,5.21-2.17,9.54-6.52,12.99-4.35,3.45-10.08,5.17-17.2,5.17-5.94,0-10.96-.94-15.05-2.82s-6.14-4.33-6.14-7.36h-.01Z"/>
      <path class="st0" d="M876.52,261.96c-1.68-3.87-2.52-8.38-2.52-13.54s.84-9.7,2.52-13.62,3.91-6.98,6.69-9.17,5.73-3.8,8.87-4.83c3.14-1.04,6.42-1.56,9.84-1.56s6.7.52,9.84,1.56,6.1,2.65,8.87,4.83c2.78,2.19,5,5.24,6.69,9.17,1.68,3.93,2.52,8.47,2.52,13.62,0,11.05-3.9,19.17-11.69,24.39,2.35,1.68,6.08,2.52,11.19,2.52.9,0,1.51-.03,1.85-.08,0,3.14-.87,5.92-2.61,8.33-1.74,2.41-4.18,3.62-7.32,3.62-5.55,0-10.68-3.39-15.39-10.18-1.68.22-3,.34-3.95.34-3.42,0-6.7-.52-9.84-1.56s-6.1-2.63-8.87-4.79c-2.78-2.16-5-5.17-6.69-9.04h0ZM901.92,262.89c3.31,0,6.12-1.19,8.45-3.57s3.49-6.01,3.49-10.89-1.16-8.59-3.49-10.97-5.14-3.57-8.45-3.57-6.13,1.19-8.45,3.57c-2.33,2.38-3.49,6.04-3.49,10.97s1.18,8.51,3.53,10.89c2.35,2.38,5.16,3.57,8.41,3.57Z"/>
      <path class="st0" d="M939.43,250.19v-23.3c0-4.6,2.41-6.9,7.23-6.9h1.18c2.58,0,4.43.53,5.55,1.6s1.68,2.83,1.68,5.3v26.74c0,6.84,3.08,10.26,9.25,10.26s9.25-3.42,9.25-10.26v-26.74c0-2.47.55-4.23,1.64-5.3,1.09-1.06,2.93-1.6,5.51-1.6h1.18c4.88,0,7.32,2.3,7.32,6.9v23.3c0,2.69-.14,5.12-.42,7.27-.28,2.16-.93,4.53-1.93,7.11-1.01,2.58-2.37,4.72-4.08,6.43s-4.13,3.15-7.27,4.33-6.87,1.77-11.19,1.77-8.05-.59-11.19-1.77-5.56-2.62-7.27-4.33-3.07-3.85-4.08-6.43-1.65-4.95-1.93-7.11c-.28-2.16-.42-4.58-.42-7.27h0Z"/>
      <path class="st0" d="M999.14,269.95v-43.14c0-2.41.55-4.15,1.64-5.21,1.09-1.06,2.93-1.6,5.51-1.6h26.41c4.32,0,6.48,2.33,6.48,6.98s-2.16,6.98-6.48,6.98h-17.91v8.33h13.88c2.13,0,3.74.41,4.84,1.22,1.09.81,1.64,2.29,1.64,4.42s-.55,3.6-1.64,4.42c-1.09.81-2.71,1.22-4.84,1.22h-13.88v9.17h18.5c4.32,0,6.48,2.3,6.48,6.9s-2.16,6.98-6.48,6.98h-27c-2.64,0-4.49-.5-5.55-1.51-1.07-1.01-1.6-2.72-1.6-5.13v-.03Z"/>
      <path class="st0" d="M1067.01,269.95v-43.14c0-2.41.55-4.15,1.64-5.21,1.09-1.06,2.9-1.6,5.42-1.6h15.89c6.73,0,11.9,1.29,15.52,3.87s5.42,6.2,5.42,10.85c0,2.64-.73,5.03-2.19,7.19s-3.25,3.69-5.38,4.58c2.63.56,4.99,1.93,7.06,4.12s3.11,5.19,3.11,9c0,5.38-2.09,9.56-6.27,12.53s-9.6,4.46-16.27,4.46h-16.9c-2.58,0-4.4-.5-5.47-1.51-1.07-1.01-1.6-2.72-1.6-5.13h.02ZM1082.56,243.13h6.81c4.54,0,6.81-1.82,6.81-5.47s-2.36-5.3-7.06-5.3h-6.56v10.76h0ZM1082.56,264.15h7.48c5.1,0,7.65-1.96,7.65-5.89,0-3.7-2.5-5.55-7.49-5.55h-7.65v11.44h.01Z"/>
      <path class="st0" d="M1121.33,270.12v-43.31c0-2.41.55-4.15,1.64-5.21,1.09-1.06,2.9-1.6,5.42-1.6h16.99c6.62,0,11.87,1.61,15.77,4.83s5.84,7.75,5.84,13.58c0,4.37-1.14,7.79-3.41,10.26-2.27,2.47-4.92,4.12-7.95,4.96,1.68,2.92,3.84,5.76,6.48,8.54,2.63,2.78,5.24,4.72,7.82,5.84-.22,2.3-1.12,4.4-2.69,6.31s-3.76,2.86-6.56,2.86c-1.46,0-2.85-.25-4.16-.76-1.32-.5-2.54-1.26-3.66-2.27-1.12-1.01-2.12-2.02-2.99-3.03s-1.77-2.31-2.69-3.91-1.64-2.9-2.14-3.91-1.15-2.35-1.93-4.04c-.79-1.68-1.32-2.8-1.6-3.36h-4.62v14.04c0,2.41-.55,4.12-1.64,5.13s-2.93,1.51-5.51,1.51h-1.18c-3.08,0-5.06-.45-5.93-1.35s-1.3-2.61-1.3-5.13v.02ZM1136.89,245.31h7.4c2.13,0,3.9-.53,5.3-1.6,1.4-1.06,2.1-2.55,2.1-4.46,0-2.02-.67-3.53-2.02-4.54-1.34-1.01-3.14-1.51-5.38-1.51h-7.4v12.11h0Z"/>
      <path class="st0" d="M1177.43,269.95v-43.14c0-2.41.55-4.15,1.64-5.21,1.09-1.06,2.93-1.6,5.51-1.6h1.35c2.58,0,4.42.53,5.51,1.6s1.64,2.8,1.64,5.21v43.14c0,2.35-.55,4.05-1.64,5.09s-2.93,1.56-5.51,1.56h-1.35c-2.64,0-4.49-.5-5.55-1.51-1.07-1.01-1.6-2.72-1.6-5.13h0Z"/>
      <path class="st0" d="M1204,269.95v-43.14c0-2.41.55-4.15,1.64-5.21,1.09-1.06,2.93-1.6,5.51-1.6h1.35c2.58,0,4.42.53,5.51,1.6s1.64,2.8,1.64,5.21v35.49h18.17c2.02,0,3.6.6,4.75,1.81s1.72,2.99,1.72,5.34-.58,4.14-1.72,5.34c-1.15,1.21-2.73,1.81-4.75,1.81h-26.66c-2.64,0-4.49-.5-5.55-1.51-1.07-1.01-1.6-2.72-1.6-5.13h-.01Z"/>
      <path class="st0" d="M1251.18,269.95v-43.14c0-2.41.55-4.15,1.64-5.21,1.09-1.06,2.93-1.6,5.51-1.6h1.35c2.58,0,4.42.53,5.51,1.6s1.64,2.8,1.64,5.21v14.55h19.17v-14.55c0-2.41.55-4.15,1.64-5.21,1.09-1.06,2.9-1.6,5.42-1.6h1.43c2.52,0,4.33.53,5.42,1.6,1.09,1.07,1.64,2.8,1.64,5.21v43.14c0,2.35-.55,4.05-1.64,5.09s-2.9,1.56-5.42,1.56h-1.43c-2.58,0-4.4-.52-5.47-1.56-1.07-1.04-1.6-2.73-1.6-5.09v-15.47h-19.17v15.47c0,2.35-.55,4.05-1.64,5.09s-2.93,1.56-5.51,1.56h-1.35c-2.64,0-4.49-.5-5.55-1.51-1.07-1.01-1.6-2.72-1.6-5.13h0Z"/>
      <path class="st0" d="M1310.22,271.8c0-1.23.25-2.8.76-4.71,3.25-12.84,7.15-25.57,11.69-38.18,2.19-6,6.39-9,12.62-9h1.85c3.25,0,5.93.81,8.03,2.44,2.1,1.63,3.63,3.81,4.58,6.56,5.27,15.53,9.17,28.26,11.69,38.18.5,2.19.76,3.59.76,4.21,0,3.53-2.35,5.3-7.06,5.3h-2.19c-1.4,0-2.59-.21-3.57-.63s-1.77-.88-2.35-1.39-1.12-1.39-1.6-2.65c-.48-1.26-.81-2.33-1.01-3.2-.2-.87-.49-2.28-.88-4.25-.11-.56-.2-.98-.25-1.26h-14.13c-.62,2.92-1.08,4.99-1.39,6.22s-.83,2.52-1.56,3.87-1.61,2.23-2.65,2.65c-1.04.42-2.4.63-4.08.63h-2.19c-4.71,0-7.06-1.6-7.06-4.79h0ZM1330.99,251.62h10.43c-1.46-6.95-3.2-12.87-5.21-17.75-1.74,3.76-3.48,9.67-5.21,17.75h0Z"/>
      <path class="st0" d="M1369.09,269.95c0-4.76.03-11.91.08-21.45.05-9.53.08-16.68.08-21.45,0-2.47.57-4.26,1.72-5.38,1.15-1.12,3.01-1.68,5.59-1.68h3.7c1.85,0,3.43.31,4.75.92,1.32.62,2.41,1.61,3.28,2.99s1.51,2.57,1.93,3.57c.42,1.01.97,2.52,1.64,4.54,4.04,12.34,6.64,20.1,7.82,23.3.5-1.35,3.08-9.11,7.74-23.3.67-2.07,1.22-3.6,1.64-4.58s1.08-2.17,1.98-3.57c.9-1.4,2-2.4,3.32-2.99s2.9-.88,4.75-.88h3.78c2.8,0,4.74.67,5.8,2.02s1.6,3.48,1.6,6.39c0,4.65.01,11.58.04,20.77.03,9.2.04,16.12.04,20.77,0,2.41-.53,4.12-1.6,5.13s-2.92,1.51-5.55,1.51h-.5c-2.47,0-4.26-.53-5.38-1.6-1.12-1.06-1.68-2.75-1.68-5.05,0-10.04.03-18.3.08-24.81-.5,1.63-2.5,7.62-5.97,18-.9,2.52-2.17,4.5-3.83,5.93-1.65,1.43-3.49,2.14-5.51,2.14h-1.68c-2.07,0-3.97-.73-5.68-2.19-1.71-1.46-2.96-3.45-3.74-5.97-.5-1.68-1.4-4.5-2.69-8.45-1.29-3.95-2.27-7.11-2.94-9.46,0,3.25.01,7.39.04,12.4.03,5.02.04,9.15.04,12.41,0,2.35-.55,4.05-1.64,5.09s-2.9,1.56-5.42,1.56h-.59c-2.58,0-4.4-.52-5.47-1.56s-1.6-2.73-1.6-5.09l.03.02Z"/>
    </g>
  </g>
  <g>
    <path class="st0" d="M240.66,144.35c0,48.95-39.68,88.63-88.63,88.63s-88.63-39.68-88.63-88.63,39.68-88.63,88.63-88.63,88.63,39.68,88.63,88.63ZM232.29,144.43c0-44.29-35.91-80.2-80.2-80.2s-80.2,35.91-80.2,80.2,35.91,80.2,80.2,80.2,80.2-35.91,80.2-80.2Z"/>
    <path class="st0" d="M67.39,93.41c-1.98,1.86-4.03,1.33-6.15.22-11.14-5.84-22.36-16.38-33.56-22.63-4.19-3.33-.67-10.01,4.57-8,10.43,7.65,22.14,14.29,32.42,22.05,2.71,2.05,6.4,4.89,2.72,8.35h0Z"/>
    <path class="st0" d="M272.89,62.76c4.62-.91,7.97,5.12,3.75,8.05l-34.66,23.25c-4.35,2.58-8.6-3.32-5.22-6.93,10.79-7.13,21.17-15.01,32.07-21.97,1.08-.69,2.91-2.16,4.06-2.39Z"/>
    <path class="st0" d="M293.07,128.86c.82-.04,1.56-.23,2.45-.14,5.39.53,6.07,8.31-.55,9.34-12.69,1.98-26.54,2.01-39.37,3.56-5.2-.38-5.97-7.02-1.18-8.94,12.77-.64,25.94-3.27,38.64-3.82h0Z"/>
    <path class="st0" d="M8.25,128.38l40.97,3.88c5.34,1.76,4.62,8.19-.82,9.2l-40.16-3.82c-5.54-.92-5.37-8.21.01-9.26h0Z"/>
    <path class="st0" d="M82.45,16.85c2.56-.35,3.98,1.36,5.16,3.23,6.42,10.12,10.99,22.88,17.47,33.15,3.34,5.5-3.62,10.7-7.7,5.13-5.39-11.51-13.2-22.92-18.33-34.42-1.4-3.14-.26-6.58,3.4-7.08h0Z"/>
    <path class="st0" d="M245.85,181.58c1.97-.45,3.38.43,5.13,1.12,11.73,4.67,23.06,10.65,34.76,15.42,3.92,3.39,1.63,9.37-3.85,8.14l-36.72-16.03c-3.99-1.4-3.09-7.8.68-8.65Z"/>
    <path class="st0" d="M215.84,221.04c1.24-.12,2.92.73,3.77,1.61l25.25,31.36c2.51,4.41-3.16,9.23-7.06,5.77-7.41-10.44-17.55-20.14-24.78-30.55-2.33-3.35-1.67-7.78,2.82-8.2h0Z"/>
    <path class="st0" d="M60.13,189.09l-38.48,17.1c-5.25.83-7.5-5.54-3.32-8.49l36.65-16.11c4.87-1.2,7.78,3.38,5.15,7.5Z"/>
    <path class="st0" d="M220.14,16.86c4.1-.6,5.92,3.13,4.6,6.77-4.07,11.17-13.7,23.56-18.29,34.89-2.86,4.76-9.73,1.7-8.31-3.59,6.44-10.78,11.24-23.56,17.74-34.16,1.01-1.65,2.14-3.61,4.26-3.92h0Z"/>
    <path class="st0" d="M87.54,221.09c2.73-.16,5.23,2.46,4.87,5.19-.12.93-.73,1.53-1.19,2.28-6.16,10.19-17.81,20.21-24.53,30.37-4.46,4.66-10.64-.22-6.8-5.95,6.72-10.03,16.88-19.31,23.73-29.45.95-1.1,2.41-2.34,3.92-2.43h0Z"/>
    <path class="st0" d="M151.08.56c2.77-.52,5.02,1.21,5.27,3.98,1.17,12.78-.89,27.35-.05,40.32-1.68,5.35-8.92,3.69-9.01-1.67,1.02-11.99-1.29-26.03.02-37.77.25-2.23,1.36-4.4,3.76-4.85h0Z"/>
    <path class="st0" d="M134.35,241.2c1.61-.27,3.59.29,4.6,1.63,1.42,1.88.8,3.99.59,6.15-1.11,11.46-3.89,23.09-4.84,34.62-1.24,5.02-9.48,4.76-9.27-1.51.41-11.79,4.61-25.24,5.27-37.23.31-1.83,1.8-3.36,3.65-3.66h0Z"/>
    <path class="st0" d="M167.81,241.19c4.34-.63,5.05,3,5.62,6.2,2.04,11.46,2.85,23.19,4.81,34.67.6,5.43-6.45,7.06-8.84,2.38l-5.36-39.27c.09-1.84,1.93-3.72,3.77-3.99h0Z"/>
    <path class="st0" d="M222.66,66.82c4.04-4.75,8.51-9.08,12.6-13.78,4.06-2.25,8.18.98,5.76,5.34l-14.56,15.03c-3.45,2.28-6.81-.96-5.6-4.74.4-1.24,1.28-1.24,1.8-1.84Z"/>
    <path class="st0" d="M82.86,72.85c-1.22,1.46-3.37,1.65-4.99.73-1.73-.99-8.55-8.3-10.34-10.25-.82-.9-4.74-5.14-4.94-5.78-1.17-3.63,1.98-6.39,5.38-4.95.67.28,6.25,6.19,7.31,7.27,1.58,1.62,6.77,6.76,7.65,8.22s1.09,3.37-.06,4.75h0Z"/>
    <path class="st0" d="M29.5,108.44c-2.29-2.48-.29-6.94,3.22-6.45l20.97,7.35c2.95,1.87,1.48,7.32-2.55,6.89-6.27-2.49-13.39-4.03-19.54-6.67-.62-.26-1.67-.65-2.11-1.11h0Z"/>
    <path class="st0" d="M270.31,102.24c4.71-.78,6.59,3.73,3.27,6.7l-20.21,7.27c-4.13.65-6.16-4-3.26-6.72l20.21-7.25Z"/>
    <path class="st0" d="M49.42,165.51c-.4.37-1.75.69-2.37.85-4.27,1.12-15.07,3.44-19.18,3.58-5.28.17-6.16-5.68-1.7-7.29,2.73-.99,17.73-3.83,20.59-3.9,3.82-.09,4.74,4.82,2.65,6.77h0Z"/>
    <path class="st0" d="M256.17,158.84l21.87,4.1c3.08,2.32,2.14,6.89-1.81,7.41l-21.25-4.51c-3.14-1.52-2.28-6.52,1.2-7Z"/>
    <path class="st0" d="M232.82,206.5c1.02-1.12,3.1-1.33,4.46-.66l16.2,12.53c2.61,2.39.53,7.23-2.9,6.78-1.21-.16-4.46-2.91-5.66-3.79-2.25-1.67-11.34-8.56-12.43-10.29-.93-1.47-.86-3.26.33-4.56h0Z"/>
    <path class="st0" d="M70.84,211.81l-16.86,12.97c-4.1,1.72-6.82-4.13-3.18-6.62l15.9-12.41c4.21-1.46,6.63,2.72,4.13,6.07h0Z"/>
    <path class="st0" d="M191.64,236.96c1.35-1.23,3.35-1.2,4.81-.15,2.74,1.98,6.4,16.48,8.7,20.06.78,3.95-4.78,5.49-6.87,2.55l-7.53-18.64c-.36-1.24-.07-2.96.89-3.84h0Z"/>
    <path class="st0" d="M112.46,236.95c1.03.87,1.11,2.59.88,3.85-.56,3.02-5.14,13.76-6.69,16.9-.83,1.68-1.24,3.22-3.41,3.5-2.2.28-4.3-1.64-4.31-3.89l8.7-20.49c1.26-1.06,3.62-.88,4.82.14h0Z"/>
    <path class="st0" d="M121.88,24.64c1.65-.03,2.86.83,3.48,2.31,2.16,5.17,2.18,13.37,4.23,18.85.14,4.3-5.58,5.56-7.36,1.44-.94-2.18-3.91-16.22-4.05-18.72-.12-2.16,1.53-3.84,3.7-3.88h0Z"/>
    <path class="st0" d="M180.65,48.81c-1.4,1.3-3.66,1.09-5.17.07-1.44-.97-1.25-1.95-1.13-3.58.18-2.38,3.54-16.72,4.49-18.67,1.69-3.47,7-2.27,6.95,1.87-1.54,3.48-3.08,18.39-5.15,20.31h0Z"/>
    <path class="st0" d="M201.77,160.08c-4.67-.85-4.15-7.47.63-6.89,1.23.15,8.9,3.84,9.91,4.71,1.27,1.09,1.4,2.31.88,3.89-.86,2.6-4.38,1.28-4.91,1.74-.25.21-1.77,5.08-2.25,6.11-6.17,13.22-16.24,23.99-29.67,29.95-32.95,14.61-69.13-2.93-80.72-36.11l-.42-.37c-2.75,1.8-6.05-1.05-4.45-4.07.84-1.59,9.47-5.7,11.36-5.83,3.04-.22,4.58,3.42,2.56,5.6-.62.67-2.2.95-2.3,1.44-.07.37,1.64,4.89,1.97,5.68,5.53,13.03,18.33,24.81,31.84,29.07,28.01,8.85,57.61-6.86,65.58-34.9h0Z"/>
    <path class="st0" d="M123.18,101.81c6.48-1.35,9.62,5.05,10.9,10.35,1.77,7.36,1.89,26.18-6.79,29.35-9.22,3.36-12.39-12.21-12.58-18.55-.16-5.39,2-19.81,8.48-21.15h0Z"/>
    <path class="st0" d="M177.23,101.81c3.8-.79,6.05.79,8.02,3.8,4.97,7.57,5.06,21.26,1.61,29.42-3.02,7.17-9.63,10.39-14.3,2.57-4.64-7.76-4.88-22.15-.87-30.18,1.01-2.01,3.23-5.13,5.54-5.61h0Z"/>
  </g>
</svg>