<?xml version="1.0" encoding="UTF-8"?>
<svg id="Camada_2" data-name="Camada 2" xmlns="http://www.w3.org/2000/svg" viewBox="0 0 1289.33 287.19">
  <defs>
    <style>
      .cls-1 {
        fill: #ffb000;
      }
    </style>
  </defs>
  <g id="Camada_2-2" data-name="Camada 2">
    <g>
      <path class="cls-1" d="M0,167.57V25.02C0,17.05,1.81,11.31,5.42,7.79S15.1,2.51,23.62,2.51h4.44c8.51,0,14.59,1.76,18.2,5.28,3.61,3.53,5.42,9.26,5.42,17.23v142.55c0,7.78-1.81,13.38-5.42,16.82-3.61,3.43-9.68,5.14-18.2,5.14h-4.44c-8.71,0-14.82-1.67-18.34-5-3.53-3.34-5.28-8.98-5.28-16.95h0Z"/>
      <path class="cls-1" d="M87.81,167.57c0-15.74.09-39.36.28-70.86.18-31.5.28-55.12.28-70.86,0-8.15,1.9-14.07,5.7-17.79,3.8-3.7,9.95-5.56,18.48-5.56h12.23c6.11,0,11.34,1.02,15.7,3.06,4.35,2.04,7.96,5.33,10.84,9.86,2.87,4.54,5,8.47,6.39,11.81,1.39,3.34,3.19,8.34,5.42,15,13.34,40.76,21.95,66.41,25.84,76.97,1.67-4.44,10.18-30.1,25.56-76.97,2.22-6.85,4.03-11.9,5.42-15.15,1.39-3.24,3.57-7.18,6.53-11.81s6.62-7.92,10.98-9.86c4.35-1.95,9.59-2.92,15.7-2.92h12.51c9.26,0,15.65,2.22,19.17,6.67,3.52,4.44,5.28,11.49,5.28,21.12,0,15.38.04,38.26.14,68.64.09,30.38.14,53.26.14,68.64,0,7.97-1.76,13.61-5.28,16.95-3.53,3.34-9.64,5-18.34,5h-1.67c-8.16,0-14.08-1.76-17.79-5.28-3.7-3.52-5.56-9.08-5.56-16.67,0-33.16.09-60.48.28-81.97-1.67,5.37-8.24,25.19-19.73,59.47-2.96,8.34-7.18,14.87-12.64,19.59-5.47,4.73-11.53,7.08-18.2,7.08h-5.56c-6.85,0-13.11-2.41-18.76-7.23-5.65-4.82-9.77-11.39-12.36-19.73-1.67-5.56-4.63-14.87-8.89-27.93-4.27-13.06-7.5-23.48-9.72-31.26,0,10.75.04,24.41.14,40.99.09,16.58.14,30.24.14,40.99,0,7.78-1.81,13.38-5.42,16.82s-9.59,5.14-17.92,5.14h-1.94c-8.52,0-14.54-1.71-18.06-5.14-3.53-3.42-5.28-9.03-5.28-16.82h0Z"/>
      <path class="cls-1" d="M318.72,173.68c0-4.07.83-9.26,2.5-15.56,10.75-42.42,23.62-84.47,38.62-126.16,7.23-19.82,21.12-29.73,41.68-29.73h6.11c10.75,0,19.59,2.69,26.54,8.05,6.95,5.37,11.99,12.6,15.15,21.68,17.41,51.32,30.29,93.37,38.62,126.16,1.67,7.23,2.5,11.86,2.5,13.9,0,11.67-7.78,17.51-23.34,17.51h-7.23c-4.63,0-8.57-.7-11.81-2.09-3.24-1.39-5.83-2.92-7.78-4.58-1.94-1.67-3.7-4.59-5.28-8.75-1.58-4.17-2.69-7.69-3.34-10.56-.65-2.87-1.63-7.54-2.92-14.03-.37-1.85-.65-3.24-.83-4.17h-46.69c-2.04,9.64-3.57,16.49-4.59,20.56-1.02,4.08-2.73,8.34-5.14,12.78-2.41,4.44-5.33,7.37-8.75,8.75-3.43,1.39-7.92,2.09-13.48,2.09h-7.23c-15.56,0-23.34-5.28-23.34-15.84h.02ZM387.36,106.99h34.46c-4.82-22.97-10.56-42.51-17.23-58.63-5.75,12.41-11.49,31.96-17.23,58.63h0Z"/>
      <path class="cls-1" d="M500.18,96.15c0-16.85,2.73-31.67,8.2-44.46,5.47-12.78,12.74-22.83,21.81-30.15,9.08-7.31,18.85-12.74,29.32-16.25s21.35-5.28,32.65-5.28c20.19,0,36.44,3.75,48.76,11.26,12.32,7.5,18.48,17.46,18.48,29.87,0,5.93-2.13,11.11-6.39,15.56-4.27,4.44-10.1,7.14-17.51,8.05-4.44-5.19-9.54-9.12-15.28-11.81-5.75-2.68-14.17-4.03-25.29-4.03-12.41,0-22.46,4.21-30.15,12.64-7.69,8.43-11.53,20.15-11.53,35.15s3.84,27.32,11.53,35.29c7.69,7.97,17.92,11.95,30.7,11.95,10,0,17.83-2.5,23.48-7.5,5.65-5,8.47-10.65,8.47-16.95,0-1.85-1.12-2.78-3.34-2.78h-15.84c-5.19,0-9.31-1.58-12.36-4.73-3.06-3.15-4.58-7.41-4.58-12.78s1.48-9.54,4.44-12.51c2.96-2.96,7.13-4.44,12.51-4.44h45.3c5.56,0,10.42,1.9,14.59,5.7,4.17,3.8,6.25,8.57,6.25,14.31v12.51c0,9.26-1.67,18.3-5,27.09-3.34,8.8-8.16,17-14.45,24.59-6.3,7.6-14.87,13.75-25.71,18.48-10.84,4.73-23.11,7.08-36.82,7.08-11.67,0-22.79-1.81-33.34-5.42-10.56-3.61-20.33-9.03-29.32-16.25-8.99-7.23-16.16-17.23-21.53-30.01-5.37-12.78-8.05-27.51-8.05-44.18h0Z"/>
      <path class="cls-1" d="M700.24,167.57V25.02c0-7.96,1.81-13.71,5.42-17.23,3.61-3.52,9.68-5.28,18.2-5.28h4.44c8.51,0,14.59,1.76,18.2,5.28,3.61,3.53,5.42,9.26,5.42,17.23v142.55c0,7.78-1.81,13.38-5.42,16.82-3.61,3.43-9.68,5.14-18.2,5.14h-4.44c-8.71,0-14.82-1.67-18.34-5-3.53-3.34-5.28-8.98-5.28-16.95h0Z"/>
      <path class="cls-1" d="M788.06,167.57V25.02c0-7.96,1.81-13.71,5.42-17.23,3.61-3.52,9.68-5.28,18.2-5.28h4.44c8.51,0,14.59,1.76,18.2,5.28,3.61,3.53,5.42,9.26,5.42,17.23v117.26h60.02c6.67,0,11.9,1.99,15.7,5.98,3.8,3.98,5.7,9.87,5.7,17.64s-1.9,13.67-5.7,17.64c-3.8,3.98-9.03,5.98-15.7,5.98h-88.08c-8.71,0-14.82-1.67-18.34-5-3.53-3.34-5.28-8.98-5.28-16.95h0Z"/>
      <path class="cls-1" d="M935.33,102.26V25.29c0-15.19,7.96-22.79,23.9-22.79h3.89c8.51,0,14.63,1.76,18.34,5.28,3.7,3.53,5.56,9.36,5.56,17.51v88.37c0,22.61,10.18,33.91,30.57,33.91s30.57-11.3,30.57-33.91V25.29c0-8.15,1.81-13.98,5.42-17.51,3.61-3.52,9.68-5.28,18.2-5.28h3.89c16.12,0,24.17,7.6,24.17,22.79v76.97c0,8.89-.47,16.91-1.39,24.04-.93,7.14-3.06,14.96-6.39,23.48-3.34,8.52-7.82,15.61-13.48,21.26s-13.67,10.42-24.04,14.31c-10.38,3.89-22.69,5.83-36.96,5.83s-26.58-1.94-36.95-5.83c-10.38-3.89-18.39-8.66-24.04-14.31-5.65-5.65-10.14-12.74-13.48-21.26-3.34-8.51-5.47-16.35-6.39-23.48-.93-7.13-1.39-15.15-1.39-24.04h0Z"/>
      <path class="cls-1" d="M1129.29,163.95c0-8.15,5.56-18.8,16.67-31.96l68.96-79.43.23-3.38h-63.91c-14.27,0-21.4-7.78-21.4-23.34,0-7.78,1.9-13.61,5.7-17.51,3.8-3.89,9.03-5.83,15.7-5.83h101.15c21.68,0,32.51,10,32.51,30.01,0,1.29-.14,2.72-.43,4.28-.28,1.57-.66,2.95-1.13,4.15-.47,1.2-1.13,2.62-1.98,4.28-.85,1.66-1.56,2.95-2.12,3.87s-1.46,2.26-2.68,4.01c-1.23,1.75-2.1,2.94-2.66,3.57s-1.59,1.87-3.15,3.73c-1.56,1.86-2.54,2.95-2.95,3.31-2.67,3.08-9.3,10.7-19.87,22.89-10.58,12.18-19.44,22.39-26.61,30.65-7.17,8.26-13.73,15.81-19.69,22.67l.17,3.2h61.41c8.7,0,15.23,1.76,19.59,5.28,4.35,3.53,6.53,9.54,6.53,18.06,0,7.78-1.94,13.57-5.83,17.37-3.89,3.8-9.08,5.7-15.56,5.7h-106.15c-11.86,0-20.24-1.99-25.15-5.98-4.91-3.98-7.37-10.52-7.37-19.59l.03-.02Z"/>
      <path class="cls-1" d="M93.28,269.95v-43.14c0-2.41.55-4.15,1.64-5.21,1.09-1.06,2.93-1.6,5.51-1.6h1.35c2.58,0,4.42.53,5.51,1.6,1.09,1.07,1.64,2.8,1.64,5.21v14.55h19.17v-14.55c0-2.41.55-4.15,1.64-5.21,1.09-1.06,2.9-1.6,5.42-1.6h1.43c2.52,0,4.33.53,5.42,1.6,1.09,1.07,1.64,2.8,1.64,5.21v43.14c0,2.35-.55,4.05-1.64,5.09-1.09,1.04-2.9,1.56-5.42,1.56h-1.43c-2.58,0-4.4-.52-5.47-1.56-1.07-1.04-1.6-2.73-1.6-5.09v-15.47h-19.17v15.47c0,2.35-.55,4.05-1.64,5.09-1.09,1.04-2.93,1.56-5.51,1.56h-1.35c-2.64,0-4.49-.5-5.55-1.51-1.07-1.01-1.6-2.72-1.6-5.13Z"/>
      <path class="cls-1" d="M154.67,269.95v-43.14c0-2.41.55-4.15,1.64-5.21,1.09-1.06,2.93-1.6,5.51-1.6h1.35c2.58,0,4.42.53,5.51,1.6,1.09,1.07,1.64,2.8,1.64,5.21v43.14c0,2.35-.55,4.05-1.64,5.09-1.09,1.04-2.93,1.56-5.51,1.56h-1.35c-2.64,0-4.49-.5-5.55-1.51-1.07-1.01-1.6-2.72-1.6-5.13Z"/>
      <path class="cls-1" d="M178.39,267.18c0-3.7,1.65-6.31,4.96-7.82,1.12,1.18,3.31,2.38,6.56,3.62,3.25,1.23,6.59,1.85,10.01,1.85,2.13,0,3.84-.42,5.13-1.26,1.29-.84,1.93-1.93,1.93-3.28,0-1.23-.65-2.23-1.93-2.99-1.29-.76-3.5-1.44-6.64-2.06-6.39-1.29-11.17-3.33-14.34-6.14-3.17-2.8-4.75-6.7-4.75-11.69,0-5.44,2.03-9.83,6.1-13.16,4.06-3.34,9.35-5,15.85-5,5.94,0,10.72.9,14.34,2.69,3.62,1.79,5.42,4.37,5.42,7.74,0,1.46-.41,2.85-1.22,4.16-.81,1.32-1.95,2.31-3.41,2.99-4.32-2.75-9.06-4.12-14.21-4.12-2.19,0-3.86.41-5,1.22-1.15.81-1.72,1.87-1.72,3.15,0,1.12.52,2,1.56,2.65,1.04.65,2.62,1.22,4.75,1.72,8.07,1.91,13.68,4.19,16.82,6.85,3.14,2.66,4.71,6.29,4.71,10.89,0,5.21-2.17,9.54-6.52,12.99-4.35,3.45-10.08,5.17-17.2,5.17-5.94,0-10.96-.94-15.05-2.82-4.09-1.88-6.14-4.33-6.14-7.36Z"/>
      <path class="cls-1" d="M244.15,234.04h-9.76c-2.02,0-3.6-.59-4.75-1.77-1.15-1.18-1.72-2.94-1.72-5.3,0-4.65,2.16-6.98,6.48-6.98h35.15c4.32,0,6.48,2.33,6.48,6.98,0,2.36-.58,4.12-1.72,5.3-1.15,1.18-2.73,1.77-4.75,1.77h-9.76v35.91c0,2.35-.55,4.05-1.64,5.09-1.09,1.04-2.93,1.56-5.51,1.56h-1.43c-2.58,0-4.4-.52-5.47-1.56-1.07-1.04-1.6-2.73-1.6-5.09v-35.91Z"/>
      <path class="cls-1" d="M281.74,261.96c-1.68-3.87-2.52-8.38-2.52-13.54s.84-9.7,2.52-13.62c1.68-3.92,3.91-6.98,6.69-9.17,2.78-2.19,5.73-3.8,8.87-4.83,3.14-1.04,6.42-1.56,9.84-1.56s6.7.52,9.84,1.56c3.14,1.04,6.1,2.65,8.87,4.83,2.78,2.19,5,5.24,6.69,9.17,1.68,3.93,2.52,8.47,2.52,13.62s-.84,9.67-2.52,13.54c-1.68,3.87-3.91,6.88-6.69,9.04-2.78,2.16-5.73,3.76-8.87,4.79-3.14,1.04-6.39,1.56-9.76,1.56s-6.7-.52-9.84-1.56c-3.14-1.04-6.11-2.63-8.91-4.79-2.8-2.16-5.05-5.17-6.73-9.04ZM298.69,259.31c2.33,2.38,5.14,3.57,8.45,3.57s6.12-1.19,8.45-3.57c2.33-2.38,3.49-6.04,3.49-10.98s-1.16-8.58-3.49-10.93c-2.33-2.35-5.14-3.53-8.45-3.53s-6.13,1.19-8.45,3.57c-2.33,2.38-3.49,6.01-3.49,10.89s1.16,8.59,3.49,10.98ZM298.56,217.73c-.79,0-1.46-.26-2.02-.8-.56-.53-.84-1.3-.84-2.31v-.76c0-1.79.95-3.17,2.86-4.12l13.29-6.81c1.57-.73,2.89-1.09,3.95-1.09,1.96,0,2.94,1.4,2.94,4.21,0,4.09-.98,6.45-2.94,7.06l-13.71,4.12c-1.18.34-2.35.5-3.53.5Z"/>
      <path class="cls-1" d="M343.47,270.12v-43.31c0-2.41.55-4.15,1.64-5.21,1.09-1.06,2.9-1.6,5.42-1.6h16.99c6.61,0,11.87,1.61,15.77,4.83,3.9,3.22,5.85,7.75,5.85,13.58,0,4.37-1.14,7.79-3.41,10.26-2.27,2.47-4.92,4.12-7.95,4.96,1.68,2.92,3.84,5.76,6.48,8.54,2.63,2.78,5.24,4.72,7.82,5.84-.22,2.3-1.12,4.4-2.69,6.31-1.57,1.91-3.76,2.86-6.56,2.86-1.46,0-2.85-.25-4.16-.76-1.32-.5-2.54-1.26-3.66-2.27-1.12-1.01-2.12-2.02-2.99-3.03-.87-1.01-1.77-2.31-2.69-3.91s-1.64-2.9-2.14-3.91c-.5-1.01-1.15-2.35-1.93-4.04-.79-1.68-1.32-2.8-1.6-3.36h-4.63v14.04c0,2.41-.55,4.12-1.64,5.13-1.09,1.01-2.93,1.51-5.51,1.51h-1.18c-3.08,0-5.06-.45-5.93-1.35-.87-.9-1.3-2.61-1.3-5.13ZM359.03,245.31h7.4c2.13,0,3.9-.53,5.3-1.6,1.4-1.06,2.1-2.55,2.1-4.46,0-2.02-.67-3.53-2.02-4.54-1.35-1.01-3.14-1.51-5.38-1.51h-7.4v12.11Z"/>
      <path class="cls-1" d="M399.57,269.95v-43.14c0-2.41.55-4.15,1.64-5.21,1.09-1.06,2.93-1.6,5.51-1.6h1.35c2.58,0,4.42.53,5.51,1.6,1.09,1.07,1.64,2.8,1.64,5.21v43.14c0,2.35-.55,4.05-1.64,5.09-1.09,1.04-2.93,1.56-5.51,1.56h-1.35c-2.64,0-4.49-.5-5.55-1.51-1.07-1.01-1.6-2.72-1.6-5.13Z"/>
      <path class="cls-1" d="M423.79,271.8c0-1.23.25-2.8.76-4.71,3.25-12.84,7.15-25.57,11.69-38.18,2.19-6,6.39-9,12.61-9h1.85c3.25,0,5.93.81,8.03,2.44,2.1,1.63,3.63,3.81,4.58,6.56,5.27,15.53,9.17,28.26,11.69,38.18.5,2.19.76,3.59.76,4.21,0,3.53-2.35,5.3-7.06,5.3h-2.19c-1.4,0-2.59-.21-3.57-.63-.98-.42-1.77-.88-2.35-1.39s-1.12-1.39-1.6-2.65c-.48-1.26-.81-2.33-1.01-3.2-.2-.87-.49-2.28-.88-4.25-.11-.56-.2-.98-.25-1.26h-14.13c-.62,2.92-1.08,4.99-1.39,6.22-.31,1.23-.83,2.52-1.56,3.87-.73,1.35-1.61,2.23-2.65,2.65-1.04.42-2.4.63-4.08.63h-2.19c-4.71,0-7.06-1.6-7.06-4.79ZM444.56,251.62h10.43c-1.46-6.95-3.2-12.87-5.21-17.75-1.74,3.76-3.48,9.67-5.21,17.75Z"/>
      <path class="cls-1" d="M481.48,267.18c0-3.7,1.65-6.31,4.96-7.82,1.12,1.18,3.31,2.38,6.56,3.62,3.25,1.23,6.59,1.85,10.01,1.85,2.13,0,3.84-.42,5.13-1.26,1.29-.84,1.93-1.93,1.93-3.28,0-1.23-.65-2.23-1.93-2.99-1.29-.76-3.5-1.44-6.64-2.06-6.39-1.29-11.17-3.33-14.34-6.14-3.17-2.8-4.75-6.7-4.75-11.69,0-5.44,2.03-9.83,6.1-13.16,4.06-3.34,9.35-5,15.85-5,5.94,0,10.72.9,14.34,2.69,3.62,1.79,5.42,4.37,5.42,7.74,0,1.46-.41,2.85-1.22,4.16-.81,1.32-1.95,2.31-3.41,2.99-4.32-2.75-9.06-4.12-14.21-4.12-2.19,0-3.86.41-5,1.22-1.15.81-1.72,1.87-1.72,3.15,0,1.12.52,2,1.56,2.65,1.04.65,2.62,1.22,4.75,1.72,8.07,1.91,13.68,4.19,16.82,6.85,3.14,2.66,4.71,6.29,4.71,10.89,0,5.21-2.17,9.54-6.52,12.99-4.35,3.45-10.08,5.17-17.2,5.17-5.94,0-10.96-.94-15.05-2.82-4.09-1.88-6.14-4.33-6.14-7.36Z"/>
      <path class="cls-1" d="M553.63,261.96c-1.68-3.87-2.52-8.38-2.52-13.54s.84-9.7,2.52-13.62c1.68-3.92,3.91-6.98,6.69-9.17,2.78-2.19,5.73-3.8,8.87-4.83,3.14-1.04,6.42-1.56,9.84-1.56s6.7.52,9.84,1.56c3.14,1.04,6.1,2.65,8.87,4.83,2.78,2.19,5,5.24,6.69,9.17,1.68,3.93,2.52,8.47,2.52,13.62,0,11.05-3.9,19.17-11.69,24.39,2.35,1.68,6.08,2.52,11.19,2.52.9,0,1.51-.03,1.85-.08,0,3.14-.87,5.92-2.61,8.33-1.74,2.41-4.18,3.62-7.32,3.62-5.55,0-10.68-3.39-15.39-10.18-1.68.22-3,.34-3.95.34-3.42,0-6.7-.52-9.84-1.56-3.14-1.04-6.1-2.63-8.87-4.79-2.78-2.16-5-5.17-6.69-9.04ZM579.03,262.89c3.31,0,6.12-1.19,8.45-3.57,2.33-2.38,3.49-6.01,3.49-10.89s-1.16-8.59-3.49-10.97c-2.33-2.38-5.14-3.57-8.45-3.57s-6.13,1.19-8.45,3.57c-2.33,2.38-3.49,6.04-3.49,10.97s1.18,8.51,3.53,10.89c2.35,2.38,5.16,3.57,8.41,3.57Z"/>
      <path class="cls-1" d="M616.54,250.19v-23.3c0-4.6,2.41-6.9,7.23-6.9h1.18c2.58,0,4.43.53,5.55,1.6,1.12,1.07,1.68,2.83,1.68,5.3v26.74c0,6.84,3.08,10.26,9.25,10.26s9.25-3.42,9.25-10.26v-26.74c0-2.47.55-4.23,1.64-5.3,1.09-1.06,2.93-1.6,5.51-1.6h1.18c4.88,0,7.32,2.3,7.32,6.9v23.3c0,2.69-.14,5.12-.42,7.27-.28,2.16-.93,4.53-1.93,7.11-1.01,2.58-2.37,4.72-4.08,6.43-1.71,1.71-4.13,3.15-7.27,4.33-3.14,1.18-6.87,1.77-11.19,1.77s-8.05-.59-11.19-1.77c-3.14-1.18-5.56-2.62-7.27-4.33-1.71-1.71-3.07-3.85-4.08-6.43-1.01-2.58-1.65-4.95-1.93-7.11-.28-2.16-.42-4.58-.42-7.27Z"/>
      <path class="cls-1" d="M676.25,269.95v-43.14c0-2.41.55-4.15,1.64-5.21,1.09-1.06,2.93-1.6,5.51-1.6h26.41c4.32,0,6.48,2.33,6.48,6.98s-2.16,6.98-6.48,6.98h-17.91v8.33h13.88c2.13,0,3.74.41,4.84,1.22,1.09.81,1.64,2.29,1.64,4.42s-.55,3.6-1.64,4.42c-1.09.81-2.71,1.22-4.84,1.22h-13.88v9.17h18.5c4.32,0,6.48,2.3,6.48,6.9s-2.16,6.98-6.48,6.98h-27c-2.64,0-4.49-.5-5.55-1.51-1.07-1.01-1.6-2.72-1.6-5.13Z"/>
      <path class="cls-1" d="M744.12,269.95v-43.14c0-2.41.55-4.15,1.64-5.21,1.09-1.06,2.9-1.6,5.42-1.6h15.89c6.73,0,11.9,1.29,15.52,3.87,3.62,2.58,5.42,6.2,5.42,10.85,0,2.64-.73,5.03-2.19,7.19-1.46,2.16-3.25,3.69-5.38,4.58,2.63.56,4.99,1.93,7.06,4.12,2.07,2.19,3.11,5.19,3.11,9,0,5.38-2.09,9.56-6.27,12.53-4.18,2.97-9.6,4.46-16.27,4.46h-16.9c-2.58,0-4.4-.5-5.47-1.51-1.07-1.01-1.6-2.72-1.6-5.13ZM759.67,243.13h6.81c4.54,0,6.81-1.82,6.81-5.47s-2.36-5.3-7.06-5.3h-6.56v10.76ZM759.67,264.15h7.48c5.1,0,7.65-1.96,7.65-5.89,0-3.7-2.5-5.55-7.49-5.55h-7.65v11.44Z"/>
      <path class="cls-1" d="M798.44,270.12v-43.31c0-2.41.55-4.15,1.64-5.21,1.09-1.06,2.9-1.6,5.42-1.6h16.99c6.62,0,11.87,1.61,15.77,4.83,3.9,3.22,5.84,7.75,5.84,13.58,0,4.37-1.14,7.79-3.41,10.26-2.27,2.47-4.92,4.12-7.95,4.96,1.68,2.92,3.84,5.76,6.48,8.54,2.63,2.78,5.24,4.72,7.82,5.84-.22,2.3-1.12,4.4-2.69,6.31-1.57,1.91-3.76,2.86-6.56,2.86-1.46,0-2.85-.25-4.16-.76-1.32-.5-2.54-1.26-3.66-2.27-1.12-1.01-2.12-2.02-2.99-3.03-.87-1.01-1.77-2.31-2.69-3.91s-1.64-2.9-2.14-3.91c-.5-1.01-1.15-2.35-1.93-4.04-.79-1.68-1.32-2.8-1.6-3.36h-4.62v14.04c0,2.41-.55,4.12-1.64,5.13-1.09,1.01-2.93,1.51-5.51,1.51h-1.18c-3.08,0-5.06-.45-5.93-1.35-.87-.9-1.3-2.61-1.3-5.13ZM814,245.31h7.4c2.13,0,3.9-.53,5.3-1.6,1.4-1.06,2.1-2.55,2.1-4.46,0-2.02-.67-3.53-2.02-4.54-1.34-1.01-3.14-1.51-5.38-1.51h-7.4v12.11Z"/>
      <path class="cls-1" d="M854.54,269.95v-43.14c0-2.41.55-4.15,1.64-5.21,1.09-1.06,2.93-1.6,5.51-1.6h1.35c2.58,0,4.42.53,5.51,1.6,1.09,1.07,1.64,2.8,1.64,5.21v43.14c0,2.35-.55,4.05-1.64,5.09-1.09,1.04-2.93,1.56-5.51,1.56h-1.35c-2.64,0-4.49-.5-5.55-1.51-1.07-1.01-1.6-2.72-1.6-5.13Z"/>
      <path class="cls-1" d="M881.11,269.95v-43.14c0-2.41.55-4.15,1.64-5.21,1.09-1.06,2.93-1.6,5.51-1.6h1.35c2.58,0,4.42.53,5.51,1.6,1.09,1.07,1.64,2.8,1.64,5.21v35.49h18.17c2.02,0,3.6.6,4.75,1.81,1.15,1.21,1.72,2.99,1.72,5.34s-.58,4.14-1.72,5.34c-1.15,1.21-2.73,1.81-4.75,1.81h-26.66c-2.64,0-4.49-.5-5.55-1.51-1.07-1.01-1.6-2.72-1.6-5.13Z"/>
      <path class="cls-1" d="M928.29,269.95v-43.14c0-2.41.55-4.15,1.64-5.21,1.09-1.06,2.93-1.6,5.51-1.6h1.35c2.58,0,4.42.53,5.51,1.6,1.09,1.07,1.64,2.8,1.64,5.21v14.55h19.17v-14.55c0-2.41.55-4.15,1.64-5.21,1.09-1.06,2.9-1.6,5.42-1.6h1.43c2.52,0,4.33.53,5.42,1.6,1.09,1.07,1.64,2.8,1.64,5.21v43.14c0,2.35-.55,4.05-1.64,5.09-1.09,1.04-2.9,1.56-5.42,1.56h-1.43c-2.58,0-4.4-.52-5.47-1.56-1.07-1.04-1.6-2.73-1.6-5.09v-15.47h-19.17v15.47c0,2.35-.55,4.05-1.64,5.09-1.09,1.04-2.93,1.56-5.51,1.56h-1.35c-2.64,0-4.49-.5-5.55-1.51-1.07-1.01-1.6-2.72-1.6-5.13Z"/>
      <path class="cls-1" d="M987.33,271.8c0-1.23.25-2.8.76-4.71,3.25-12.84,7.15-25.57,11.69-38.18,2.19-6,6.39-9,12.62-9h1.85c3.25,0,5.93.81,8.03,2.44,2.1,1.63,3.63,3.81,4.58,6.56,5.27,15.53,9.17,28.26,11.69,38.18.5,2.19.76,3.59.76,4.21,0,3.53-2.35,5.3-7.06,5.3h-2.19c-1.4,0-2.59-.21-3.57-.63-.98-.42-1.77-.88-2.35-1.39s-1.12-1.39-1.6-2.65c-.48-1.26-.81-2.33-1.01-3.2-.2-.87-.49-2.28-.88-4.25-.11-.56-.2-.98-.25-1.26h-14.13c-.62,2.92-1.08,4.99-1.39,6.22-.31,1.23-.83,2.52-1.56,3.87-.73,1.35-1.61,2.23-2.65,2.65-1.04.42-2.4.63-4.08.63h-2.19c-4.71,0-7.06-1.6-7.06-4.79ZM1008.1,251.62h10.43c-1.46-6.95-3.2-12.87-5.21-17.75-1.74,3.76-3.48,9.67-5.21,17.75Z"/>
      <path class="cls-1" d="M1046.2,269.95c0-4.76.03-11.91.08-21.45.05-9.53.08-16.68.08-21.45,0-2.47.57-4.26,1.72-5.38,1.15-1.12,3.01-1.68,5.59-1.68h3.7c1.85,0,3.43.31,4.75.92,1.32.62,2.41,1.61,3.28,2.99.87,1.38,1.51,2.57,1.93,3.57.42,1.01.97,2.52,1.64,4.54,4.04,12.34,6.64,20.1,7.82,23.3.5-1.35,3.08-9.11,7.74-23.3.67-2.07,1.22-3.6,1.64-4.58.42-.98,1.08-2.17,1.98-3.57.9-1.4,2-2.4,3.32-2.99s2.9-.88,4.75-.88h3.78c2.8,0,4.74.67,5.8,2.02,1.06,1.35,1.6,3.48,1.6,6.39,0,4.65.01,11.58.04,20.77.03,9.2.04,16.12.04,20.77,0,2.41-.53,4.12-1.6,5.13-1.07,1.01-2.92,1.51-5.55,1.51h-.5c-2.47,0-4.26-.53-5.38-1.6-1.12-1.06-1.68-2.75-1.68-5.05,0-10.04.03-18.3.08-24.81-.5,1.63-2.5,7.62-5.97,18-.9,2.52-2.17,4.5-3.83,5.93-1.65,1.43-3.49,2.14-5.51,2.14h-1.68c-2.07,0-3.97-.73-5.68-2.19-1.71-1.46-2.96-3.45-3.74-5.97-.5-1.68-1.4-4.5-2.69-8.45-1.29-3.95-2.27-7.11-2.94-9.46,0,3.25.01,7.39.04,12.4.03,5.02.04,9.15.04,12.41,0,2.35-.55,4.05-1.64,5.09-1.09,1.04-2.9,1.56-5.42,1.56h-.59c-2.58,0-4.4-.52-5.47-1.56-1.07-1.04-1.6-2.73-1.6-5.09Z"/>
    </g>
  </g>
</svg>