<?xml version="1.0" encoding="UTF-8"?>
<svg id="Layer_1" xmlns="http://www.w3.org/2000/svg" version="1.1" xmlns:xlink="http://www.w3.org/1999/xlink" viewBox="0 0 1148 1148">
  <!-- Generator: Adobe Illustrator 29.3.1, SVG Export Plug-In . SVG Version: 2.1.0 Build 151)  -->
  <defs>
    <style>
      .st0 {
        fill: #fff;
      }

      .st1 {
        fill: none;
      }

      .st2 {
        isolation: isolate;
      }
    </style>
  </defs>
  <circle class="st0" cx="574" cy="574" r="764.4"/>
  <g>
    <rect class="st0" x="56" y="56" width="1036" height="1036"/>
    <g>
      <rect x="359.2" y="106.5" width="25.3" height="25.3"/>
      <rect x="384.5" y="106.5" width="25.3" height="25.3"/>
      <rect x="409.8" y="106.5" width="25.3" height="25.3"/>
      <rect x="435" y="106.5" width="25.3" height="25.3"/>
      <rect x="536.1" y="106.5" width="25.3" height="25.3"/>
      <rect x="611.9" y="106.5" width="25.3" height="25.3"/>
      <rect x="637.2" y="106.5" width="25.3" height="25.3"/>
      <rect x="662.4" y="106.5" width="25.3" height="25.3"/>
      <rect x="814" y="106.5" width="25.3" height="25.3"/>
      <rect x="359.2" y="131.8" width="25.3" height="25.3"/>
      <rect x="510.8" y="131.8" width="25.3" height="25.3"/>
      <rect x="611.9" y="131.8" width="25.3" height="25.3"/>
      <rect x="637.2" y="131.8" width="25.3" height="25.3"/>
      <rect x="662.4" y="131.8" width="25.3" height="25.3"/>
      <rect x="687.7" y="131.8" width="25.3" height="25.3"/>
      <rect x="763.5" y="131.8" width="25.3" height="25.3"/>
      <rect x="814" y="131.8" width="25.3" height="25.3"/>
      <rect x="359.2" y="157.1" width="25.3" height="25.3"/>
      <rect x="510.8" y="157.1" width="25.3" height="25.3"/>
      <rect x="536.1" y="157.1" width="25.3" height="25.3"/>
      <rect x="561.4" y="157.1" width="25.3" height="25.3"/>
      <rect x="586.6" y="157.1" width="25.3" height="25.3"/>
      <rect x="611.9" y="157.1" width="25.3" height="25.3"/>
      <rect x="662.4" y="157.1" width="25.3" height="25.3"/>
      <rect x="687.7" y="157.1" width="25.3" height="25.3"/>
      <rect x="713" y="157.1" width="25.3" height="25.3"/>
      <rect x="738.2" y="157.1" width="25.3" height="25.3"/>
      <rect x="763.5" y="157.1" width="25.3" height="25.3"/>
      <rect x="788.8" y="157.1" width="25.3" height="25.3"/>
      <rect x="814" y="157.1" width="25.3" height="25.3"/>
      <rect x="359.2" y="182.3" width="25.3" height="25.3"/>
      <rect x="384.5" y="182.3" width="25.3" height="25.3"/>
      <rect x="409.8" y="182.3" width="25.3" height="25.3"/>
      <rect x="460.3" y="182.3" width="25.3" height="25.3"/>
      <rect x="510.8" y="182.3" width="25.3" height="25.3"/>
      <rect x="536.1" y="182.3" width="25.3" height="25.3"/>
      <rect x="586.6" y="182.3" width="25.3" height="25.3"/>
      <rect x="637.2" y="182.3" width="25.3" height="25.3"/>
      <rect x="662.4" y="182.3" width="25.3" height="25.3"/>
      <rect x="687.7" y="182.3" width="25.3" height="25.3"/>
      <rect x="713" y="182.3" width="25.3" height="25.3"/>
      <rect x="738.2" y="182.3" width="25.3" height="25.3"/>
      <rect x="763.5" y="182.3" width="25.3" height="25.3"/>
      <rect x="788.8" y="182.3" width="25.3" height="25.3"/>
      <rect x="308.7" y="207.6" width="25.3" height="25.3"/>
      <rect x="334" y="207.6" width="25.3" height="25.3"/>
      <rect x="409.8" y="207.6" width="25.3" height="25.3"/>
      <rect x="460.3" y="207.6" width="25.3" height="25.3"/>
      <rect x="485.6" y="207.6" width="25.3" height="25.3"/>
      <rect x="586.6" y="207.6" width="25.3" height="25.3"/>
      <rect x="662.4" y="207.6" width="25.3" height="25.3"/>
      <rect x="738.2" y="207.6" width="25.3" height="25.3"/>
      <rect x="788.8" y="207.6" width="25.3" height="25.3"/>
      <rect x="435" y="232.9" width="25.3" height="25.3"/>
      <rect x="460.3" y="232.9" width="25.3" height="25.3"/>
      <rect x="536.1" y="232.9" width="25.3" height="25.3"/>
      <rect x="637.2" y="232.9" width="25.3" height="25.3"/>
      <rect x="687.7" y="232.9" width="25.3" height="25.3"/>
      <rect x="713" y="232.9" width="25.3" height="25.3"/>
      <rect x="763.5" y="232.9" width="25.3" height="25.3"/>
      <rect x="308.7" y="258.1" width="25.3" height="25.3"/>
      <rect x="359.2" y="258.1" width="25.3" height="25.3"/>
      <rect x="409.8" y="258.1" width="25.3" height="25.3"/>
      <rect x="460.3" y="258.1" width="25.3" height="25.3"/>
      <rect x="510.8" y="258.1" width="25.3" height="25.3"/>
      <rect x="561.4" y="258.1" width="25.3" height="25.3"/>
      <rect x="611.9" y="258.1" width="25.3" height="25.3"/>
      <rect x="662.4" y="258.1" width="25.3" height="25.3"/>
      <rect x="713" y="258.1" width="25.3" height="25.3"/>
      <rect x="763.5" y="258.1" width="25.3" height="25.3"/>
      <rect x="814" y="258.1" width="25.3" height="25.3"/>
      <rect x="308.7" y="283.4" width="25.3" height="25.3"/>
      <rect x="334" y="283.4" width="25.3" height="25.3"/>
      <rect x="384.5" y="283.4" width="25.3" height="25.3"/>
      <rect x="409.8" y="283.4" width="25.3" height="25.3"/>
      <rect x="485.6" y="283.4" width="25.3" height="25.3"/>
      <rect x="510.8" y="283.4" width="25.3" height="25.3"/>
      <rect x="586.6" y="283.4" width="25.3" height="25.3"/>
      <rect x="687.7" y="283.4" width="25.3" height="25.3"/>
      <rect x="713" y="283.4" width="25.3" height="25.3"/>
      <rect x="788.8" y="283.4" width="25.3" height="25.3"/>
      <rect x="814" y="283.4" width="25.3" height="25.3"/>
      <rect x="157.1" y="308.7" width="25.3" height="25.3"/>
      <rect x="182.3" y="308.7" width="25.3" height="25.3"/>
      <rect x="258.1" y="308.7" width="25.3" height="25.3"/>
      <rect x="283.4" y="308.7" width="25.3" height="25.3"/>
      <rect x="308.7" y="308.7" width="25.3" height="25.3"/>
      <rect x="359.2" y="308.7" width="25.3" height="25.3"/>
      <rect x="384.5" y="308.7" width="25.3" height="25.3"/>
      <rect x="536.1" y="308.7" width="25.3" height="25.3"/>
      <rect x="586.6" y="308.7" width="25.3" height="25.3"/>
      <rect x="611.9" y="308.7" width="25.3" height="25.3"/>
      <rect x="637.2" y="308.7" width="25.3" height="25.3"/>
      <rect x="662.4" y="308.7" width="25.3" height="25.3"/>
      <rect x="687.7" y="308.7" width="25.3" height="25.3"/>
      <rect x="738.2" y="308.7" width="25.3" height="25.3"/>
      <rect x="788.8" y="308.7" width="25.3" height="25.3"/>
      <rect x="814" y="308.7" width="25.3" height="25.3"/>
      <rect x="839.3" y="308.7" width="25.3" height="25.3"/>
      <rect x="864.6" y="308.7" width="25.3" height="25.3"/>
      <rect x="915.1" y="308.7" width="25.3" height="25.3"/>
      <rect x="131.8" y="334" width="25.3" height="25.3"/>
      <rect x="182.3" y="334" width="25.3" height="25.3"/>
      <rect x="207.6" y="334" width="25.3" height="25.3"/>
      <rect x="283.4" y="334" width="25.3" height="25.3"/>
      <rect x="334" y="334" width="25.3" height="25.3"/>
      <rect x="359.2" y="334" width="25.3" height="25.3"/>
      <rect x="384.5" y="334" width="25.3" height="25.3"/>
      <rect x="409.8" y="334" width="25.3" height="25.3"/>
      <rect x="510.8" y="334" width="25.3" height="25.3"/>
      <rect x="611.9" y="334" width="25.3" height="25.3"/>
      <rect x="662.4" y="334" width="25.3" height="25.3"/>
      <rect x="687.7" y="334" width="25.3" height="25.3"/>
      <rect x="738.2" y="334" width="25.3" height="25.3"/>
      <rect x="814" y="334" width="25.3" height="25.3"/>
      <rect x="889.9" y="334" width="25.3" height="25.3"/>
      <rect x="940.4" y="334" width="25.3" height="25.3"/>
      <rect x="990.9" y="334" width="25.3" height="25.3"/>
      <rect x="131.8" y="359.2" width="25.3" height="25.3"/>
      <rect x="157.1" y="359.2" width="25.3" height="25.3"/>
      <rect x="182.3" y="359.2" width="25.3" height="25.3"/>
      <rect x="207.6" y="359.2" width="25.3" height="25.3"/>
      <rect x="258.1" y="359.2" width="25.3" height="25.3"/>
      <rect x="308.7" y="359.2" width="25.3" height="25.3"/>
      <rect x="359.2" y="359.2" width="25.3" height="25.3"/>
      <rect x="384.5" y="359.2" width="25.3" height="25.3"/>
      <rect x="435" y="359.2" width="25.3" height="25.3"/>
      <rect x="485.6" y="359.2" width="25.3" height="25.3"/>
      <rect x="510.8" y="359.2" width="25.3" height="25.3"/>
      <rect x="536.1" y="359.2" width="25.3" height="25.3"/>
      <rect x="561.4" y="359.2" width="25.3" height="25.3"/>
      <rect x="611.9" y="359.2" width="25.3" height="25.3"/>
      <rect x="687.7" y="359.2" width="25.3" height="25.3"/>
      <rect x="738.2" y="359.2" width="25.3" height="25.3"/>
      <rect x="839.3" y="359.2" width="25.3" height="25.3"/>
      <rect x="915.1" y="359.2" width="25.3" height="25.3"/>
      <rect x="940.4" y="359.2" width="25.3" height="25.3"/>
      <rect x="131.8" y="384.5" width="25.3" height="25.3"/>
      <rect x="157.1" y="384.5" width="25.3" height="25.3"/>
      <rect x="308.7" y="384.5" width="25.3" height="25.3"/>
      <rect x="334" y="384.5" width="25.3" height="25.3"/>
      <rect x="359.2" y="384.5" width="25.3" height="25.3"/>
      <rect x="409.8" y="384.5" width="25.3" height="25.3"/>
      <rect x="435" y="384.5" width="25.3" height="25.3"/>
      <rect x="485.6" y="384.5" width="25.3" height="25.3"/>
      <rect x="510.8" y="384.5" width="25.3" height="25.3"/>
      <rect x="536.1" y="384.5" width="25.3" height="25.3"/>
      <rect x="586.6" y="384.5" width="25.3" height="25.3"/>
      <rect x="611.9" y="384.5" width="25.3" height="25.3"/>
      <rect x="637.2" y="384.5" width="25.3" height="25.3"/>
      <rect x="662.4" y="384.5" width="25.3" height="25.3"/>
      <rect x="713" y="384.5" width="25.3" height="25.3"/>
      <rect x="738.2" y="384.5" width="25.3" height="25.3"/>
      <rect x="763.5" y="384.5" width="25.3" height="25.3"/>
      <rect x="940.4" y="384.5" width="25.3" height="25.3"/>
      <rect x="965.7" y="384.5" width="25.3" height="25.3"/>
      <rect x="1016.2" y="384.5" width="25.3" height="25.3"/>
      <rect x="131.8" y="409.8" width="25.3" height="25.3"/>
      <rect x="258.1" y="409.8" width="25.3" height="25.3"/>
      <rect x="283.4" y="409.8" width="25.3" height="25.3"/>
      <rect x="308.7" y="409.8" width="25.3" height="25.3"/>
      <rect x="359.2" y="409.8" width="25.3" height="25.3"/>
      <rect x="409.8" y="409.8" width="25.3" height="25.3"/>
      <rect x="460.3" y="409.8" width="25.3" height="25.3"/>
      <rect x="510.8" y="409.8" width="25.3" height="25.3"/>
      <rect x="536.1" y="409.8" width="25.3" height="25.3"/>
      <rect x="637.2" y="409.8" width="25.3" height="25.3"/>
      <rect x="687.7" y="409.8" width="25.3" height="25.3"/>
      <rect x="738.2" y="409.8" width="25.3" height="25.3"/>
      <rect x="763.5" y="409.8" width="25.3" height="25.3"/>
      <rect x="839.3" y="409.8" width="25.3" height="25.3"/>
      <rect x="864.6" y="409.8" width="25.3" height="25.3"/>
      <rect x="915.1" y="409.8" width="25.3" height="25.3"/>
      <rect x="940.4" y="409.8" width="25.3" height="25.3"/>
      <rect x="965.7" y="409.8" width="25.3" height="25.3"/>
      <rect x="1016.2" y="409.8" width="25.3" height="25.3"/>
      <rect x="106.5" y="435" width="25.3" height="25.3"/>
      <rect x="131.8" y="435" width="25.3" height="25.3"/>
      <rect x="157.1" y="435" width="25.3" height="25.3"/>
      <rect x="232.9" y="435" width="25.3" height="25.3"/>
      <rect x="283.4" y="435" width="25.3" height="25.3"/>
      <rect x="334" y="435" width="25.3" height="25.3"/>
      <rect x="409.8" y="435" width="25.3" height="25.3"/>
      <rect x="460.3" y="435" width="25.3" height="25.3"/>
      <rect x="485.6" y="435" width="25.3" height="25.3"/>
      <rect x="510.8" y="435" width="25.3" height="25.3"/>
      <rect x="611.9" y="435" width="25.3" height="25.3"/>
      <rect x="637.2" y="435" width="25.3" height="25.3"/>
      <rect x="687.7" y="435" width="25.3" height="25.3"/>
      <rect x="738.2" y="435" width="25.3" height="25.3"/>
      <rect x="763.5" y="435" width="25.3" height="25.3"/>
      <rect x="788.8" y="435" width="25.3" height="25.3"/>
      <rect x="814" y="435" width="25.3" height="25.3"/>
      <rect x="864.6" y="435" width="25.3" height="25.3"/>
      <rect x="889.9" y="435" width="25.3" height="25.3"/>
      <rect x="915.1" y="435" width="25.3" height="25.3"/>
      <rect x="965.7" y="435" width="25.3" height="25.3"/>
      <rect x="990.9" y="435" width="25.3" height="25.3"/>
      <rect x="1016.2" y="435" width="25.3" height="25.3"/>
      <rect x="131.8" y="460.3" width="25.3" height="25.3"/>
      <rect x="157.1" y="460.3" width="25.3" height="25.3"/>
      <rect x="182.3" y="460.3" width="25.3" height="25.3"/>
      <rect x="207.6" y="460.3" width="25.3" height="25.3"/>
      <rect x="232.9" y="460.3" width="25.3" height="25.3"/>
      <rect x="258.1" y="460.3" width="25.3" height="25.3"/>
      <rect x="283.4" y="460.3" width="25.3" height="25.3"/>
      <rect x="359.2" y="460.3" width="25.3" height="25.3"/>
      <rect x="384.5" y="460.3" width="25.3" height="25.3"/>
      <rect x="409.8" y="460.3" width="25.3" height="25.3"/>
      <rect x="460.3" y="460.3" width="25.3" height="25.3"/>
      <rect x="485.6" y="460.3" width="25.3" height="25.3"/>
      <rect x="536.1" y="460.3" width="25.3" height="25.3"/>
      <rect x="561.4" y="460.3" width="25.3" height="25.3"/>
      <rect x="586.6" y="460.3" width="25.3" height="25.3"/>
      <rect x="611.9" y="460.3" width="25.3" height="25.3"/>
      <rect x="637.2" y="460.3" width="25.3" height="25.3"/>
      <rect x="662.4" y="460.3" width="25.3" height="25.3"/>
      <rect x="713" y="460.3" width="25.3" height="25.3"/>
      <rect x="763.5" y="460.3" width="25.3" height="25.3"/>
      <rect x="814" y="460.3" width="25.3" height="25.3"/>
      <rect x="839.3" y="460.3" width="25.3" height="25.3"/>
      <rect x="889.9" y="460.3" width="25.3" height="25.3"/>
      <rect x="965.7" y="460.3" width="25.3" height="25.3"/>
      <rect x="990.9" y="460.3" width="25.3" height="25.3"/>
      <rect x="182.3" y="485.6" width="25.3" height="25.3"/>
      <rect x="232.9" y="485.6" width="25.3" height="25.3"/>
      <rect x="334" y="485.6" width="25.3" height="25.3"/>
      <rect x="384.5" y="485.6" width="25.3" height="25.3"/>
      <rect x="435" y="485.6" width="25.3" height="25.3"/>
      <rect x="536.1" y="485.6" width="25.3" height="25.3"/>
      <rect x="561.4" y="485.6" width="25.3" height="25.3"/>
      <rect x="586.6" y="485.6" width="25.3" height="25.3"/>
      <rect x="611.9" y="485.6" width="25.3" height="25.3"/>
      <rect x="637.2" y="485.6" width="25.3" height="25.3"/>
      <rect x="662.4" y="485.6" width="25.3" height="25.3"/>
      <rect x="687.7" y="485.6" width="25.3" height="25.3"/>
      <rect x="713" y="485.6" width="25.3" height="25.3"/>
      <rect x="763.5" y="485.6" width="25.3" height="25.3"/>
      <rect x="814" y="485.6" width="25.3" height="25.3"/>
      <rect x="839.3" y="485.6" width="25.3" height="25.3"/>
      <rect x="864.6" y="485.6" width="25.3" height="25.3"/>
      <rect x="889.9" y="485.6" width="25.3" height="25.3"/>
      <rect x="915.1" y="485.6" width="25.3" height="25.3"/>
      <rect x="990.9" y="485.6" width="25.3" height="25.3"/>
      <rect x="1016.2" y="485.6" width="25.3" height="25.3"/>
      <rect x="157.1" y="510.8" width="25.3" height="25.3"/>
      <rect x="182.3" y="510.8" width="25.3" height="25.3"/>
      <rect x="207.6" y="510.8" width="25.3" height="25.3"/>
      <rect x="232.9" y="510.8" width="25.3" height="25.3"/>
      <rect x="258.1" y="510.8" width="25.3" height="25.3"/>
      <rect x="409.8" y="510.8" width="25.3" height="25.3"/>
      <rect x="435" y="510.8" width="25.3" height="25.3"/>
      <rect x="536.1" y="510.8" width="25.3" height="25.3"/>
      <rect x="611.9" y="510.8" width="25.3" height="25.3"/>
      <rect x="637.2" y="510.8" width="25.3" height="25.3"/>
      <rect x="662.4" y="510.8" width="25.3" height="25.3"/>
      <rect x="738.2" y="510.8" width="25.3" height="25.3"/>
      <rect x="788.8" y="510.8" width="25.3" height="25.3"/>
      <rect x="889.9" y="510.8" width="25.3" height="25.3"/>
      <rect x="940.4" y="510.8" width="25.3" height="25.3"/>
      <rect x="965.7" y="510.8" width="25.3" height="25.3"/>
      <rect x="990.9" y="510.8" width="25.3" height="25.3"/>
      <rect x="106.5" y="536.1" width="25.3" height="25.3"/>
      <rect x="131.8" y="536.1" width="25.3" height="25.3"/>
      <rect x="157.1" y="536.1" width="25.3" height="25.3"/>
      <rect x="207.6" y="536.1" width="25.3" height="25.3"/>
      <rect x="283.4" y="536.1" width="25.3" height="25.3"/>
      <rect x="308.7" y="536.1" width="25.3" height="25.3"/>
      <rect x="435" y="536.1" width="25.3" height="25.3"/>
      <rect x="460.3" y="536.1" width="25.3" height="25.3"/>
      <rect x="485.6" y="536.1" width="25.3" height="25.3"/>
      <rect x="536.1" y="536.1" width="25.3" height="25.3"/>
      <rect x="561.4" y="536.1" width="25.3" height="25.3"/>
      <rect x="586.6" y="536.1" width="25.3" height="25.3"/>
      <rect x="611.9" y="536.1" width="25.3" height="25.3"/>
      <rect x="637.2" y="536.1" width="25.3" height="25.3"/>
      <rect x="662.4" y="536.1" width="25.3" height="25.3"/>
      <rect x="687.7" y="536.1" width="25.3" height="25.3"/>
      <rect x="738.2" y="536.1" width="25.3" height="25.3"/>
      <rect x="788.8" y="536.1" width="25.3" height="25.3"/>
      <rect x="839.3" y="536.1" width="25.3" height="25.3"/>
      <rect x="864.6" y="536.1" width="25.3" height="25.3"/>
      <rect x="940.4" y="536.1" width="25.3" height="25.3"/>
      <rect x="965.7" y="536.1" width="25.3" height="25.3"/>
      <rect x="1016.2" y="536.1" width="25.3" height="25.3"/>
      <rect x="131.8" y="561.4" width="25.3" height="25.3"/>
      <rect x="157.1" y="561.4" width="25.3" height="25.3"/>
      <rect x="182.3" y="561.4" width="25.3" height="25.3"/>
      <rect x="207.6" y="561.4" width="25.3" height="25.3"/>
      <rect x="258.1" y="561.4" width="25.3" height="25.3"/>
      <rect x="359.2" y="561.4" width="25.3" height="25.3"/>
      <rect x="409.8" y="561.4" width="25.3" height="25.3"/>
      <rect x="460.3" y="561.4" width="25.3" height="25.3"/>
      <rect x="485.6" y="561.4" width="25.3" height="25.3"/>
      <rect x="561.4" y="561.4" width="25.3" height="25.3"/>
      <rect x="662.4" y="561.4" width="25.3" height="25.3"/>
      <rect x="738.2" y="561.4" width="25.3" height="25.3"/>
      <rect x="788.8" y="561.4" width="25.3" height="25.3"/>
      <rect x="839.3" y="561.4" width="25.3" height="25.3"/>
      <rect x="864.6" y="561.4" width="25.3" height="25.3"/>
      <rect x="965.7" y="561.4" width="25.3" height="25.3"/>
      <rect x="990.9" y="561.4" width="25.3" height="25.3"/>
      <rect x="1016.2" y="561.4" width="25.3" height="25.3"/>
      <rect x="106.5" y="586.6" width="25.3" height="25.3"/>
      <rect x="131.8" y="586.6" width="25.3" height="25.3"/>
      <rect x="157.1" y="586.6" width="25.3" height="25.3"/>
      <rect x="182.3" y="586.6" width="25.3" height="25.3"/>
      <rect x="207.6" y="586.6" width="25.3" height="25.3"/>
      <rect x="283.4" y="586.6" width="25.3" height="25.3"/>
      <rect x="308.7" y="586.6" width="25.3" height="25.3"/>
      <rect x="334" y="586.6" width="25.3" height="25.3"/>
      <rect x="409.8" y="586.6" width="25.3" height="25.3"/>
      <rect x="460.3" y="586.6" width="25.3" height="25.3"/>
      <rect x="561.4" y="586.6" width="25.3" height="25.3"/>
      <rect x="637.2" y="586.6" width="25.3" height="25.3"/>
      <rect x="713" y="586.6" width="25.3" height="25.3"/>
      <rect x="763.5" y="586.6" width="25.3" height="25.3"/>
      <rect x="788.8" y="586.6" width="25.3" height="25.3"/>
      <rect x="814" y="586.6" width="25.3" height="25.3"/>
      <rect x="889.9" y="586.6" width="25.3" height="25.3"/>
      <rect x="940.4" y="586.6" width="25.3" height="25.3"/>
      <rect x="157.1" y="611.9" width="25.3" height="25.3"/>
      <rect x="182.3" y="611.9" width="25.3" height="25.3"/>
      <rect x="207.6" y="611.9" width="25.3" height="25.3"/>
      <rect x="232.9" y="611.9" width="25.3" height="25.3"/>
      <rect x="258.1" y="611.9" width="25.3" height="25.3"/>
      <rect x="283.4" y="611.9" width="25.3" height="25.3"/>
      <rect x="359.2" y="611.9" width="25.3" height="25.3"/>
      <rect x="384.5" y="611.9" width="25.3" height="25.3"/>
      <rect x="435" y="611.9" width="25.3" height="25.3"/>
      <rect x="485.6" y="611.9" width="25.3" height="25.3"/>
      <rect x="536.1" y="611.9" width="25.3" height="25.3"/>
      <rect x="561.4" y="611.9" width="25.3" height="25.3"/>
      <rect x="637.2" y="611.9" width="25.3" height="25.3"/>
      <rect x="662.4" y="611.9" width="25.3" height="25.3"/>
      <rect x="763.5" y="611.9" width="25.3" height="25.3"/>
      <rect x="788.8" y="611.9" width="25.3" height="25.3"/>
      <rect x="814" y="611.9" width="25.3" height="25.3"/>
      <rect x="839.3" y="611.9" width="25.3" height="25.3"/>
      <rect x="915.1" y="611.9" width="25.3" height="25.3"/>
      <rect x="1016.2" y="611.9" width="25.3" height="25.3"/>
      <rect x="157.1" y="637.2" width="25.3" height="25.3"/>
      <rect x="207.6" y="637.2" width="25.3" height="25.3"/>
      <rect x="308.7" y="637.2" width="25.3" height="25.3"/>
      <rect x="409.8" y="637.2" width="25.3" height="25.3"/>
      <rect x="435" y="637.2" width="25.3" height="25.3"/>
      <rect x="460.3" y="637.2" width="25.3" height="25.3"/>
      <rect x="485.6" y="637.2" width="25.3" height="25.3"/>
      <rect x="510.8" y="637.2" width="25.3" height="25.3"/>
      <rect x="586.6" y="637.2" width="25.3" height="25.3"/>
      <rect x="611.9" y="637.2" width="25.3" height="25.3"/>
      <rect x="662.4" y="637.2" width="25.3" height="25.3"/>
      <rect x="713" y="637.2" width="25.3" height="25.3"/>
      <rect x="738.2" y="637.2" width="25.3" height="25.3"/>
      <rect x="889.9" y="637.2" width="25.3" height="25.3"/>
      <rect x="940.4" y="637.2" width="25.3" height="25.3"/>
      <rect x="131.8" y="662.4" width="25.3" height="25.3"/>
      <rect x="182.3" y="662.4" width="25.3" height="25.3"/>
      <rect x="258.1" y="662.4" width="25.3" height="25.3"/>
      <rect x="334" y="662.4" width="25.3" height="25.3"/>
      <rect x="409.8" y="662.4" width="25.3" height="25.3"/>
      <rect x="435" y="662.4" width="25.3" height="25.3"/>
      <rect x="510.8" y="662.4" width="25.3" height="25.3"/>
      <rect x="561.4" y="662.4" width="25.3" height="25.3"/>
      <rect x="586.6" y="662.4" width="25.3" height="25.3"/>
      <rect x="637.2" y="662.4" width="25.3" height="25.3"/>
      <rect x="687.7" y="662.4" width="25.3" height="25.3"/>
      <rect x="713" y="662.4" width="25.3" height="25.3"/>
      <rect x="738.2" y="662.4" width="25.3" height="25.3"/>
      <rect x="915.1" y="662.4" width="25.3" height="25.3"/>
      <rect x="965.7" y="662.4" width="25.3" height="25.3"/>
      <rect x="106.5" y="687.7" width="25.3" height="25.3"/>
      <rect x="157.1" y="687.7" width="25.3" height="25.3"/>
      <rect x="232.9" y="687.7" width="25.3" height="25.3"/>
      <rect x="283.4" y="687.7" width="25.3" height="25.3"/>
      <rect x="308.7" y="687.7" width="25.3" height="25.3"/>
      <rect x="334" y="687.7" width="25.3" height="25.3"/>
      <rect x="359.2" y="687.7" width="25.3" height="25.3"/>
      <rect x="409.8" y="687.7" width="25.3" height="25.3"/>
      <rect x="460.3" y="687.7" width="25.3" height="25.3"/>
      <rect x="510.8" y="687.7" width="25.3" height="25.3"/>
      <rect x="662.4" y="687.7" width="25.3" height="25.3"/>
      <rect x="687.7" y="687.7" width="25.3" height="25.3"/>
      <rect x="713" y="687.7" width="25.3" height="25.3"/>
      <rect x="788.8" y="687.7" width="25.3" height="25.3"/>
      <rect x="814" y="687.7" width="25.3" height="25.3"/>
      <rect x="839.3" y="687.7" width="25.3" height="25.3"/>
      <rect x="965.7" y="687.7" width="25.3" height="25.3"/>
      <rect x="990.9" y="687.7" width="25.3" height="25.3"/>
      <rect x="1016.2" y="687.7" width="25.3" height="25.3"/>
      <rect x="157.1" y="713" width="25.3" height="25.3"/>
      <rect x="232.9" y="713" width="25.3" height="25.3"/>
      <rect x="258.1" y="713" width="25.3" height="25.3"/>
      <rect x="283.4" y="713" width="25.3" height="25.3"/>
      <rect x="308.7" y="713" width="25.3" height="25.3"/>
      <rect x="359.2" y="713" width="25.3" height="25.3"/>
      <rect x="384.5" y="713" width="25.3" height="25.3"/>
      <rect x="435" y="713" width="25.3" height="25.3"/>
      <rect x="460.3" y="713" width="25.3" height="25.3"/>
      <rect x="485.6" y="713" width="25.3" height="25.3"/>
      <rect x="536.1" y="713" width="25.3" height="25.3"/>
      <rect x="561.4" y="713" width="25.3" height="25.3"/>
      <rect x="586.6" y="713" width="25.3" height="25.3"/>
      <rect x="611.9" y="713" width="25.3" height="25.3"/>
      <rect x="662.4" y="713" width="25.3" height="25.3"/>
      <rect x="713" y="713" width="25.3" height="25.3"/>
      <rect x="763.5" y="713" width="25.3" height="25.3"/>
      <rect x="839.3" y="713" width="25.3" height="25.3"/>
      <rect x="864.6" y="713" width="25.3" height="25.3"/>
      <rect x="915.1" y="713" width="25.3" height="25.3"/>
      <rect x="940.4" y="713" width="25.3" height="25.3"/>
      <rect x="965.7" y="713" width="25.3" height="25.3"/>
      <rect x="1016.2" y="713" width="25.3" height="25.3"/>
      <rect x="207.6" y="738.2" width="25.3" height="25.3"/>
      <rect x="232.9" y="738.2" width="25.3" height="25.3"/>
      <rect x="334" y="738.2" width="25.3" height="25.3"/>
      <rect x="384.5" y="738.2" width="25.3" height="25.3"/>
      <rect x="435" y="738.2" width="25.3" height="25.3"/>
      <rect x="485.6" y="738.2" width="25.3" height="25.3"/>
      <rect x="510.8" y="738.2" width="25.3" height="25.3"/>
      <rect x="536.1" y="738.2" width="25.3" height="25.3"/>
      <rect x="561.4" y="738.2" width="25.3" height="25.3"/>
      <rect x="611.9" y="738.2" width="25.3" height="25.3"/>
      <rect x="637.2" y="738.2" width="25.3" height="25.3"/>
      <rect x="687.7" y="738.2" width="25.3" height="25.3"/>
      <rect x="713" y="738.2" width="25.3" height="25.3"/>
      <rect x="738.2" y="738.2" width="25.3" height="25.3"/>
      <rect x="763.5" y="738.2" width="25.3" height="25.3"/>
      <rect x="788.8" y="738.2" width="25.3" height="25.3"/>
      <rect x="814" y="738.2" width="25.3" height="25.3"/>
      <rect x="839.3" y="738.2" width="25.3" height="25.3"/>
      <rect x="864.6" y="738.2" width="25.3" height="25.3"/>
      <rect x="889.9" y="738.2" width="25.3" height="25.3"/>
      <rect x="915.1" y="738.2" width="25.3" height="25.3"/>
      <rect x="940.4" y="738.2" width="25.3" height="25.3"/>
      <rect x="965.7" y="738.2" width="25.3" height="25.3"/>
      <rect x="990.9" y="738.2" width="25.3" height="25.3"/>
      <rect x="1016.2" y="738.2" width="25.3" height="25.3"/>
      <rect x="131.8" y="763.5" width="25.3" height="25.3"/>
      <rect x="157.1" y="763.5" width="25.3" height="25.3"/>
      <rect x="182.3" y="763.5" width="25.3" height="25.3"/>
      <rect x="258.1" y="763.5" width="25.3" height="25.3"/>
      <rect x="283.4" y="763.5" width="25.3" height="25.3"/>
      <rect x="359.2" y="763.5" width="25.3" height="25.3"/>
      <rect x="384.5" y="763.5" width="25.3" height="25.3"/>
      <rect x="485.6" y="763.5" width="25.3" height="25.3"/>
      <rect x="536.1" y="763.5" width="25.3" height="25.3"/>
      <rect x="586.6" y="763.5" width="25.3" height="25.3"/>
      <rect x="611.9" y="763.5" width="25.3" height="25.3"/>
      <rect x="637.2" y="763.5" width="25.3" height="25.3"/>
      <rect x="662.4" y="763.5" width="25.3" height="25.3"/>
      <rect x="687.7" y="763.5" width="25.3" height="25.3"/>
      <rect x="738.2" y="763.5" width="25.3" height="25.3"/>
      <rect x="814" y="763.5" width="25.3" height="25.3"/>
      <rect x="940.4" y="763.5" width="25.3" height="25.3"/>
      <rect x="965.7" y="763.5" width="25.3" height="25.3"/>
      <rect x="990.9" y="763.5" width="25.3" height="25.3"/>
      <rect x="106.5" y="788.8" width="25.3" height="25.3"/>
      <rect x="207.6" y="788.8" width="25.3" height="25.3"/>
      <rect x="232.9" y="788.8" width="25.3" height="25.3"/>
      <rect x="283.4" y="788.8" width="25.3" height="25.3"/>
      <rect x="308.7" y="788.8" width="25.3" height="25.3"/>
      <rect x="384.5" y="788.8" width="25.3" height="25.3"/>
      <rect x="409.8" y="788.8" width="25.3" height="25.3"/>
      <rect x="485.6" y="788.8" width="25.3" height="25.3"/>
      <rect x="510.8" y="788.8" width="25.3" height="25.3"/>
      <rect x="586.6" y="788.8" width="25.3" height="25.3"/>
      <rect x="637.2" y="788.8" width="25.3" height="25.3"/>
      <rect x="687.7" y="788.8" width="25.3" height="25.3"/>
      <rect x="763.5" y="788.8" width="25.3" height="25.3"/>
      <rect x="788.8" y="788.8" width="25.3" height="25.3"/>
      <rect x="814" y="788.8" width="25.3" height="25.3"/>
      <rect x="839.3" y="788.8" width="25.3" height="25.3"/>
      <rect x="157.1" y="814" width="25.3" height="25.3"/>
      <rect x="182.3" y="814" width="25.3" height="25.3"/>
      <rect x="207.6" y="814" width="25.3" height="25.3"/>
      <rect x="258.1" y="814" width="25.3" height="25.3"/>
      <rect x="308.7" y="814" width="25.3" height="25.3"/>
      <rect x="334" y="814" width="25.3" height="25.3"/>
      <rect x="384.5" y="814" width="25.3" height="25.3"/>
      <rect x="409.8" y="814" width="25.3" height="25.3"/>
      <rect x="510.8" y="814" width="25.3" height="25.3"/>
      <rect x="536.1" y="814" width="25.3" height="25.3"/>
      <rect x="637.2" y="814" width="25.3" height="25.3"/>
      <rect x="713" y="814" width="25.3" height="25.3"/>
      <rect x="738.2" y="814" width="25.3" height="25.3"/>
      <rect x="788.8" y="814" width="25.3" height="25.3"/>
      <rect x="814" y="814" width="25.3" height="25.3"/>
      <rect x="839.3" y="814" width="25.3" height="25.3"/>
      <rect x="864.6" y="814" width="25.3" height="25.3"/>
      <rect x="889.9" y="814" width="25.3" height="25.3"/>
      <rect x="915.1" y="814" width="25.3" height="25.3"/>
      <rect x="965.7" y="814" width="25.3" height="25.3"/>
      <rect x="1016.2" y="814" width="25.3" height="25.3"/>
      <rect x="308.7" y="839.3" width="25.3" height="25.3"/>
      <rect x="334" y="839.3" width="25.3" height="25.3"/>
      <rect x="359.2" y="839.3" width="25.3" height="25.3"/>
      <rect x="435" y="839.3" width="25.3" height="25.3"/>
      <rect x="460.3" y="839.3" width="25.3" height="25.3"/>
      <rect x="586.6" y="839.3" width="25.3" height="25.3"/>
      <rect x="611.9" y="839.3" width="25.3" height="25.3"/>
      <rect x="662.4" y="839.3" width="25.3" height="25.3"/>
      <rect x="713" y="839.3" width="25.3" height="25.3"/>
      <rect x="814" y="839.3" width="25.3" height="25.3"/>
      <rect x="915.1" y="839.3" width="25.3" height="25.3"/>
      <rect x="940.4" y="839.3" width="25.3" height="25.3"/>
      <rect x="965.7" y="839.3" width="25.3" height="25.3"/>
      <rect x="1016.2" y="839.3" width="25.3" height="25.3"/>
      <rect x="308.7" y="864.6" width="25.3" height="25.3"/>
      <rect x="334" y="864.6" width="25.3" height="25.3"/>
      <rect x="409.8" y="864.6" width="25.3" height="25.3"/>
      <rect x="460.3" y="864.6" width="25.3" height="25.3"/>
      <rect x="485.6" y="864.6" width="25.3" height="25.3"/>
      <rect x="510.8" y="864.6" width="25.3" height="25.3"/>
      <rect x="561.4" y="864.6" width="25.3" height="25.3"/>
      <rect x="586.6" y="864.6" width="25.3" height="25.3"/>
      <rect x="637.2" y="864.6" width="25.3" height="25.3"/>
      <rect x="763.5" y="864.6" width="25.3" height="25.3"/>
      <rect x="814" y="864.6" width="25.3" height="25.3"/>
      <rect x="864.6" y="864.6" width="25.3" height="25.3"/>
      <rect x="915.1" y="864.6" width="25.3" height="25.3"/>
      <rect x="940.4" y="864.6" width="25.3" height="25.3"/>
      <rect x="990.9" y="864.6" width="25.3" height="25.3"/>
      <rect x="1016.2" y="864.6" width="25.3" height="25.3"/>
      <rect x="510.8" y="889.9" width="25.3" height="25.3"/>
      <rect x="586.6" y="889.9" width="25.3" height="25.3"/>
      <rect x="611.9" y="889.9" width="25.3" height="25.3"/>
      <rect x="713" y="889.9" width="25.3" height="25.3"/>
      <rect x="788.8" y="889.9" width="25.3" height="25.3"/>
      <rect x="814" y="889.9" width="25.3" height="25.3"/>
      <rect x="915.1" y="889.9" width="25.3" height="25.3"/>
      <rect x="940.4" y="889.9" width="25.3" height="25.3"/>
      <rect x="409.8" y="915.1" width="25.3" height="25.3"/>
      <rect x="435" y="915.1" width="25.3" height="25.3"/>
      <rect x="485.6" y="915.1" width="25.3" height="25.3"/>
      <rect x="561.4" y="915.1" width="25.3" height="25.3"/>
      <rect x="611.9" y="915.1" width="25.3" height="25.3"/>
      <rect x="637.2" y="915.1" width="25.3" height="25.3"/>
      <rect x="662.4" y="915.1" width="25.3" height="25.3"/>
      <rect x="687.7" y="915.1" width="25.3" height="25.3"/>
      <rect x="713" y="915.1" width="25.3" height="25.3"/>
      <rect x="814" y="915.1" width="25.3" height="25.3"/>
      <rect x="839.3" y="915.1" width="25.3" height="25.3"/>
      <rect x="864.6" y="915.1" width="25.3" height="25.3"/>
      <rect x="889.9" y="915.1" width="25.3" height="25.3"/>
      <rect x="915.1" y="915.1" width="25.3" height="25.3"/>
      <rect x="940.4" y="915.1" width="25.3" height="25.3"/>
      <rect x="990.9" y="915.1" width="25.3" height="25.3"/>
      <rect x="1016.2" y="915.1" width="25.3" height="25.3"/>
      <rect x="308.7" y="940.4" width="25.3" height="25.3"/>
      <rect x="334" y="940.4" width="25.3" height="25.3"/>
      <rect x="435" y="940.4" width="25.3" height="25.3"/>
      <rect x="510.8" y="940.4" width="25.3" height="25.3"/>
      <rect x="536.1" y="940.4" width="25.3" height="25.3"/>
      <rect x="561.4" y="940.4" width="25.3" height="25.3"/>
      <rect x="586.6" y="940.4" width="25.3" height="25.3"/>
      <rect x="611.9" y="940.4" width="25.3" height="25.3"/>
      <rect x="662.4" y="940.4" width="25.3" height="25.3"/>
      <rect x="713" y="940.4" width="25.3" height="25.3"/>
      <rect x="814" y="940.4" width="25.3" height="25.3"/>
      <rect x="864.6" y="940.4" width="25.3" height="25.3"/>
      <rect x="940.4" y="940.4" width="25.3" height="25.3"/>
      <rect x="965.7" y="940.4" width="25.3" height="25.3"/>
      <rect x="308.7" y="965.7" width="25.3" height="25.3"/>
      <rect x="334" y="965.7" width="25.3" height="25.3"/>
      <rect x="359.2" y="965.7" width="25.3" height="25.3"/>
      <rect x="409.8" y="965.7" width="25.3" height="25.3"/>
      <rect x="435" y="965.7" width="25.3" height="25.3"/>
      <rect x="460.3" y="965.7" width="25.3" height="25.3"/>
      <rect x="536.1" y="965.7" width="25.3" height="25.3"/>
      <rect x="561.4" y="965.7" width="25.3" height="25.3"/>
      <rect x="586.6" y="965.7" width="25.3" height="25.3"/>
      <rect x="611.9" y="965.7" width="25.3" height="25.3"/>
      <rect x="637.2" y="965.7" width="25.3" height="25.3"/>
      <rect x="662.4" y="965.7" width="25.3" height="25.3"/>
      <rect x="687.7" y="965.7" width="25.3" height="25.3"/>
      <rect x="713" y="965.7" width="25.3" height="25.3"/>
      <rect x="788.8" y="965.7" width="25.3" height="25.3"/>
      <rect x="814" y="965.7" width="25.3" height="25.3"/>
      <rect x="864.6" y="965.7" width="25.3" height="25.3"/>
      <rect x="889.9" y="965.7" width="25.3" height="25.3"/>
      <rect x="915.1" y="965.7" width="25.3" height="25.3"/>
      <rect x="940.4" y="965.7" width="25.3" height="25.3"/>
      <rect x="990.9" y="965.7" width="25.3" height="25.3"/>
      <rect x="359.2" y="990.9" width="25.3" height="25.3"/>
      <rect x="409.8" y="990.9" width="25.3" height="25.3"/>
      <rect x="435" y="990.9" width="25.3" height="25.3"/>
      <rect x="536.1" y="990.9" width="25.3" height="25.3"/>
      <rect x="561.4" y="990.9" width="25.3" height="25.3"/>
      <rect x="586.6" y="990.9" width="25.3" height="25.3"/>
      <rect x="611.9" y="990.9" width="25.3" height="25.3"/>
      <rect x="637.2" y="990.9" width="25.3" height="25.3"/>
      <rect x="738.2" y="990.9" width="25.3" height="25.3"/>
      <rect x="864.6" y="990.9" width="25.3" height="25.3"/>
      <rect x="915.1" y="990.9" width="25.3" height="25.3"/>
      <rect x="940.4" y="990.9" width="25.3" height="25.3"/>
      <rect x="965.7" y="990.9" width="25.3" height="25.3"/>
      <rect x="334" y="1016.2" width="25.3" height="25.3"/>
      <rect x="359.2" y="1016.2" width="25.3" height="25.3"/>
      <rect x="384.5" y="1016.2" width="25.3" height="25.3"/>
      <rect x="435" y="1016.2" width="25.3" height="25.3"/>
      <rect x="460.3" y="1016.2" width="25.3" height="25.3"/>
      <rect x="485.6" y="1016.2" width="25.3" height="25.3"/>
      <rect x="536.1" y="1016.2" width="25.3" height="25.3"/>
      <rect x="561.4" y="1016.2" width="25.3" height="25.3"/>
      <rect x="586.6" y="1016.2" width="25.3" height="25.3"/>
      <rect x="637.2" y="1016.2" width="25.3" height="25.3"/>
      <rect x="713" y="1016.2" width="25.3" height="25.3"/>
      <rect x="738.2" y="1016.2" width="25.3" height="25.3"/>
      <rect x="763.5" y="1016.2" width="25.3" height="25.3"/>
      <rect x="788.8" y="1016.2" width="25.3" height="25.3"/>
      <rect x="889.9" y="1016.2" width="25.3" height="25.3"/>
      <rect x="915.1" y="1016.2" width="25.3" height="25.3"/>
      <rect x="940.4" y="1016.2" width="25.3" height="25.3"/>
      <rect x="965.7" y="1016.2" width="25.3" height="25.3"/>
      <rect x="990.9" y="1016.2" width="25.3" height="25.3"/>
      <rect x="1016.2" y="1016.2" width="25.3" height="25.3"/>
      <g>
        <rect class="st1" x="133.1" y="133.1" width="123.8" height="123.8"/>
        <path d="M256.9,106.5H106.5v176.9h176.9V106.5h-26.5ZM256.9,256.9h-123.8v-123.8h123.8v123.8Z"/>
      </g>
      <g>
        <rect class="st1" x="891.1" y="133.1" width="123.8" height="123.8"/>
        <path d="M1014.9,106.5h-150.3v176.9h176.9V106.5h-26.5ZM1014.9,256.9h-123.8v-123.8h123.8v123.8Z"/>
      </g>
      <g>
        <rect class="st1" x="133.1" y="891.1" width="123.8" height="123.8"/>
        <path d="M256.9,864.6H106.5v176.9h176.9v-176.9h-26.5ZM256.9,1014.9h-123.8v-123.8h123.8v123.8Z"/>
      </g>
      <rect x="157.1" y="157.1" width="75.8" height="75.8"/>
      <rect x="915.1" y="157.1" width="75.8" height="75.8"/>
      <rect x="157.1" y="915.1" width="75.8" height="75.8"/>
      <image class="st2" width="308" height="308" transform="translate(435 435) scale(.9)" xlink:href="qr-code-Leonardo-1.png"/>
    </g>
  </g>
</svg>